# Blender v2.82 (sub 7) OBJ File: 'flour.blend'
# www.blender.org
mtllib book.mtl
o Cube.012_Cube.021
v 3.003872 3.234133 -4.509918
v 3.003872 3.386350 -4.509918
v 3.003872 3.234133 -5.173228
v 3.003872 3.386350 -5.173228
v 3.918596 3.234133 -4.509918
v 3.918596 3.386350 -4.509918
v 3.918596 3.234133 -5.173228
v 3.918596 3.386350 -5.173228
v 3.003872 3.255418 -4.509918
v 3.003872 3.365064 -4.509918
v 3.003872 3.365064 -5.192374
v 3.003872 3.255418 -5.192374
v 3.918596 3.365064 -5.192374
v 3.918596 3.255418 -5.192374
v 3.918596 3.365064 -4.509918
v 3.918596 3.255418 -4.509918
v 3.003872 3.316559 -5.205877
v 3.003872 3.303924 -5.205877
v 3.918596 3.316559 -5.205877
v 3.918596 3.303924 -5.205877
v 3.003872 3.365064 -4.467444
v 3.003872 3.386350 -4.467444
v 3.918596 3.255418 -4.467444
v 3.918596 3.234133 -4.467444
v 3.003872 3.234133 -4.467444
v 3.918596 3.386350 -4.467444
v 3.003872 3.255418 -4.467444
v 3.918596 3.365064 -4.467444
v 3.001078 3.234133 -5.173228
v 2.992591 3.234133 -4.509918
v 2.992591 3.365064 -4.509918
v 2.992591 3.386350 -4.509918
v 3.001078 3.386350 -5.173228
v 3.001078 3.255418 -5.192374
v 3.921390 3.255418 -5.192374
v 3.921390 3.234133 -5.173228
v 3.929877 3.234133 -4.509918
v 3.921390 3.386350 -5.173228
v 3.929877 3.386350 -4.509918
v 3.929877 3.255418 -4.509918
v 2.992591 3.255418 -4.509918
v 3.001078 3.365064 -5.192374
v 3.921390 3.365064 -5.192374
v 3.929877 3.365064 -4.509918
v 2.992591 3.365064 -4.467444
v 2.992591 3.386350 -4.467444
v 3.929877 3.255418 -4.467444
v 3.929877 3.234133 -4.467444
v 2.992591 3.234133 -4.467444
v 2.992591 3.255418 -4.467444
v 3.929877 3.386350 -4.467444
v 3.929877 3.365064 -4.467444
v 3.003872 3.234133 -5.164243
v 3.003872 3.386350 -5.164243
v 3.918596 3.234133 -5.164243
v 3.918596 3.386350 -5.164243
v 3.918596 3.255418 -5.183129
v 3.918596 3.365064 -5.183129
v 3.003872 3.255418 -5.183129
v 3.003872 3.365064 -5.183129
v 3.000937 3.234133 -5.164243
v 3.000937 3.386350 -5.164243
v 3.921531 3.234133 -5.164243
v 3.921531 3.386350 -5.164243
v 3.921531 3.255418 -5.183129
v 3.921531 3.365064 -5.183129
v 3.000937 3.255418 -5.183129
v 3.000937 3.365064 -5.183129
vt 0.458333 0.750000
vt 0.541667 0.750000
vt 0.541667 1.000000
vt 0.458333 1.000000
vt 0.458333 0.503386
vt 0.541667 0.503386
vt 0.541667 0.500000
vt 0.541667 0.500000
vt 0.541667 0.503386
vt 0.541667 0.750000
vt 0.541667 0.750000
vt 0.541667 0.750000
vt 0.458333 0.000000
vt 0.541667 0.000000
vt 0.541667 0.246613
vt 0.458333 0.246613
vt 0.125000 0.750000
vt 0.125000 0.750000
vt 0.125000 0.750000
vt 0.125000 0.750000
vt 0.541667 0.250000
vt 0.625000 0.250000
vt 0.625000 0.500000
vt 0.541667 0.250000
vt 0.625000 0.250000
vt 0.458333 0.750000
vt 0.458333 0.750000
vt 0.458333 0.750000
vt 0.125000 0.503386
vt 0.375000 0.503386
vt 0.375000 0.750000
vt 0.625000 0.503386
vt 0.875000 0.503386
vt 0.875000 0.750000
vt 0.625000 0.750000
vt 0.541667 1.000000
vt 0.625000 1.000000
vt 0.625000 1.000000
vt 0.541667 1.000000
vt 0.375000 0.500000
vt 0.458333 0.500000
vt 0.458333 0.500000
vt 0.375000 0.500000
vt 0.375000 0.250000
vt 0.458333 0.250000
vt 0.541667 0.500000
vt 0.541667 0.250000
vt 0.625000 0.750000
vt 0.625000 0.750000
vt 0.625000 0.750000
vt 0.458333 0.250000
vt 0.458333 0.500000
vt 0.375000 0.750000
vt 0.458333 1.000000
vt 0.375000 1.000000
vt 0.875000 0.750000
vt 0.541667 0.000000
vt 0.541667 0.246613
vt 0.375000 0.750000
vt 0.375000 0.750000
vt 0.625000 0.246613
vt 0.625000 0.503386
vt 0.625000 0.000000
vt 0.541667 0.000000
vt 0.625000 0.000000
vt 0.458333 0.000000
vt 0.375000 0.000000
vt 0.375000 0.000000
vt 0.458333 0.000000
vt 0.375000 0.503386
vt 0.458333 0.503387
vt 0.375000 0.246613
vt 0.458333 0.246614
vt 0.458333 0.250000
vt 0.375000 0.250000
vt 0.125000 0.503387
vt 0.458333 1.000000
vt 0.458333 1.000000
vt 0.625000 0.500000
vt 0.541667 1.000000
vt 0.875000 0.500000
vt 0.875000 0.500000
vt 0.875000 0.503386
vt 0.875000 0.750000
vt 0.875000 0.750000
vt 0.375000 1.000000
vt 0.125000 0.500000
vt 0.125000 0.500000
vn 0.0000 0.0000 1.0000
vn 1.0000 0.0000 0.0000
vn 0.0000 -1.0000 -0.0000
vn -1.0000 0.0000 0.0000
vn 0.0000 0.6687 -0.7435
vn 0.0000 1.0000 0.0000
vn 0.0000 -0.6687 -0.7435
vn 0.0000 0.2682 -0.9634
vn 0.0000 0.0000 -1.0000
vn 0.0000 -0.2682 -0.9634
vn -0.9998 0.0138 -0.0154
vn 0.9999 0.0056 -0.0126
vn 0.9999 -0.0056 -0.0126
vn -0.9998 -0.0138 -0.0154
vn -0.9999 -0.0056 -0.0126
vn 0.9998 -0.0138 -0.0154
vn 0.9998 0.0138 -0.0154
vn -0.9999 0.0056 -0.0126
usemtl Material.018
s off
f 16/1/1 15/2/1 10/3/1 9/4/1
f 57/5/2 58/6/2 15/2/2 16/1/2
f 58/6/3 13/7/3 43/8/3 66/9/3
f 28/10/3 15/2/3 44/11/3 52/12/3
f 15/2/3 58/6/3 66/9/3 44/11/3
f 9/13/4 10/14/4 60/15/4 59/16/4
usemtl Material.019
f 1/17/3 25/18/3 49/19/3 30/20/3
f 11/21/5 4/22/5 8/23/5 13/7/5
f 4/22/5 11/21/5 42/24/5 33/25/5
f 16/1/6 23/26/6 47/27/6 40/28/6
f 53/29/3 55/30/3 5/31/3 1/17/3
f 56/32/6 54/33/6 2/34/6 6/35/6
f 21/36/1 22/37/1 46/38/1 45/39/1
f 7/40/7 14/41/7 35/42/7 36/43/7
f 3/44/7 12/45/7 14/41/7 7/40/7
f 11/21/8 13/7/8 19/46/8 17/47/8
f 6/35/6 26/48/6 51/49/6 39/50/6
f 59/16/4 60/15/4 11/21/4 12/45/4
f 18/51/9 17/47/9 19/46/9 20/52/9
f 13/7/2 14/41/2 20/52/2 19/46/2
f 12/45/4 11/21/4 17/47/4 18/51/4
f 14/41/10 12/45/10 18/51/10 20/52/10
f 28/10/1 26/48/1 22/37/1 21/36/1
f 24/53/1 23/26/1 27/54/1 25/55/1
f 10/3/3 15/2/3 28/10/3 21/36/3
f 1/17/3 5/31/3 24/53/3 25/18/3
f 6/35/6 2/34/6 22/56/6 26/48/6
f 16/1/6 9/4/6 27/54/6 23/26/6
f 60/15/3 10/14/3 31/57/3 68/58/3
f 24/53/3 5/31/3 37/59/3 48/60/3
f 68/58/11 62/61/11 33/25/11 42/24/11
f 66/9/12 64/62/12 39/50/12 44/11/12
f 32/63/4 31/57/4 45/64/4 46/65/4
f 41/66/4 30/67/4 49/68/4 50/69/4
f 63/70/13 65/71/13 40/28/13 37/59/13
f 61/72/14 67/73/14 34/74/14 29/75/14
f 37/59/2 40/28/2 47/27/2 48/60/2
f 44/11/2 39/50/2 51/49/2 52/12/2
f 55/30/3 7/40/3 36/43/3 63/70/3
f 57/5/6 16/1/6 40/28/6 65/71/6
f 23/26/1 24/53/1 48/60/1 47/27/1
f 53/29/3 1/17/3 30/20/3 61/76/3
f 27/54/6 9/4/6 41/77/6 50/78/6
f 56/32/6 6/35/6 39/50/6 64/62/6
f 13/7/5 8/23/5 38/79/5 43/8/5
f 10/3/3 21/36/3 45/39/3 31/80/3
f 54/33/6 4/81/6 33/82/6 62/83/6
f 22/56/6 2/34/6 32/84/6 46/85/6
f 25/55/1 27/54/1 50/78/1 49/86/1
f 12/45/7 3/44/7 29/75/7 34/74/7
f 59/16/6 12/45/6 34/74/6 67/73/6
f 26/48/1 28/10/1 52/12/1 51/49/1
f 9/13/6 59/16/6 67/73/6 41/66/6
f 2/34/6 54/33/6 62/83/6 32/84/6
f 8/23/6 56/32/6 64/62/6 38/79/6
f 3/87/3 53/29/3 61/76/3 29/88/3
f 14/41/6 57/5/6 65/71/6 35/42/6
f 5/31/3 55/30/3 63/70/3 37/59/3
f 30/67/15 41/66/15 67/73/15 61/72/15
f 36/43/16 35/42/16 65/71/16 63/70/16
f 43/8/17 38/79/17 64/62/17 66/9/17
f 31/57/18 32/63/18 62/61/18 68/58/18
f 11/21/3 60/15/3 68/58/3 42/24/3
f 14/41/2 13/7/2 58/6/2 57/5/2
f 8/23/6 4/81/6 54/33/6 56/32/6
f 3/87/3 7/40/3 55/30/3 53/29/3
