{
	"asset":{
		"generator":"Khronos glTF Blender I/O v3.6.27",
		"version":"2.0"
	},
	"extensionsUsed":[
		"KHR_materials_specular",
		"KHR_materials_ior"
	],
	"scene":0,
	"scenes":[
		{
			"name":"Scene",
			"nodes":[
				0,
				1,
				2,
				3,
				4,
				5,
				6,
				7,
				8,
				9,
				10,
				11,
				12
			]
		}
	],
	"nodes":[
		{
			"mesh":0,
			"name":"\u041e\u043a\u0440\u0443\u0436\u043d\u043e\u0441\u0442\u044c"
		},
		{
			"mesh":1,
			"name":"\u0426\u0438\u043b\u0438\u043d\u0434\u0440",
			"scale":[
				0.9918063879013062,
				1.7229499816894531,
				0.9918063879013062
			],
			"translation":[
				0,
				1.9071670770645142,
				0
			]
		},
		{
			"mesh":0,
			"name":"\u041e\u043a\u0440\u0443\u0436\u043d\u043e\u0441\u0442\u044c.001",
			"rotation":[
				-0.1539739966392517,
				-7.428992103086784e-05,
				0.9880748987197876,
				1.1631889719865285e-05
			],
			"translation":[
				0,
				3.8219659328460693,
				0
			]
		},
		{
			"mesh":2,
			"name":"\u041e\u043a\u0440\u0443\u0436\u043d\u043e\u0441\u0442\u044c.002",
			"scale":[
				0.8107495307922363,
				0.8107495307922363,
				0.8107495307922363
			],
			"translation":[
				0,
				3.801124095916748,
				0
			]
		},
		{
			"mesh":3,
			"name":"\u041e\u043a\u0440\u0443\u0436\u043d\u043e\u0441\u0442\u044c.003",
			"scale":[
				0.6997053027153015,
				1.9064370393753052,
				0.6997053027153015
			],
			"translation":[
				0,
				4.407751560211182,
				0
			]
		},
		{
			"mesh":4,
			"name":"\u041e\u043a\u0440\u0443\u0436\u043d\u043e\u0441\u0442\u044c.004",
			"scale":[
				0.6342943906784058,
				0.6342943906784058,
				0.6342943906784058
			],
			"translation":[
				0,
				4.517930030822754,
				0
			]
		},
		{
			"mesh":5,
			"name":"\u041f\u043b\u043e\u0441\u043a\u043e\u0441\u0442\u044c",
			"scale":[
				0.5666137933731079,
				0.5666137933731079,
				0.562262773513794
			],
			"translation":[
				-0.5633307099342346,
				5.107617378234863,
				0
			]
		},
		{
			"mesh":6,
			"name":"\u041f\u043b\u043e\u0441\u043a\u043e\u0441\u0442\u044c.001",
			"scale":[
				0.804215133190155,
				0.5666137933731079,
				0.562262773513794
			],
			"translation":[
				-0.9754446744918823,
				5.403000354766846,
				0
			]
		},
		{
			"mesh":7,
			"name":"\u041e\u043a\u0440\u0443\u0436\u043d\u043e\u0441\u0442\u044c.005",
			"rotation":[
				0,
				0,
				-0.7071068286895752,
				0.7071068286895752
			],
			"scale":[
				-0.16551759839057922,
				-0.16551759839057922,
				-0.16551759839057922
			],
			"translation":[
				-1.7795473337173462,
				5.2747111320495605,
				0
			]
		},
		{
			"mesh":8,
			"name":"\u041e\u043a\u0440\u0443\u0436\u043d\u043e\u0441\u0442\u044c.006",
			"translation":[
				-0.0012780667748302221,
				0,
				0
			]
		},
		{
			"mesh":9,
			"name":"\u041a\u0443\u0431",
			"scale":[
				0.1153583750128746,
				0.1153583750128746,
				0.1153583750128746
			],
			"translation":[
				-1.1465134620666504,
				4.955411911010742,
				0
			]
		},
		{
			"mesh":10,
			"name":"\u041e\u043a\u0440\u0443\u0436\u043d\u043e\u0441\u0442\u044c.007",
			"scale":[
				0.03981318697333336,
				0.03981318697333336,
				0.03981318697333336
			],
			"translation":[
				0,
				5.384668350219727,
				0
			]
		},
		{
			"mesh":11,
			"name":"\u041e\u043a\u0440\u0443\u0436\u043d\u043e\u0441\u0442\u044c.008",
			"scale":[
				0.22287791967391968,
				0.22287791967391968,
				0.22287791967391968
			],
			"translation":[
				0,
				5.567469120025635,
				0
			]
		}
	],
	"materials":[
		{
			"doubleSided":true,
			"extensions":{
				"KHR_materials_specular":{
					"specularColorFactor":[
						0.6068433359889999,
						0.6068433359889999,
						0.6068433359889999
					]
				},
				"KHR_materials_ior":{
					"ior":1.4500000476837158
				}
			},
			"name":"\u041c\u0430\u0442\u0435\u0440\u0438\u0430\u043b.001",
			"pbrMetallicRoughness":{
				"baseColorFactor":[
					0.15232478082180023,
					0.15232478082180023,
					0.15232478082180023,
					1
				],
				"metallicFactor":0.14960630238056183,
				"roughnessFactor":0.35826772451400757
			}
		},
		{
			"doubleSided":true,
			"extensions":{
				"KHR_materials_specular":{
					"specularColorFactor":[
						0.8122366999413421,
						0.8122366999413421,
						0.8122366999413421
					]
				},
				"KHR_materials_ior":{
					"ior":1.4500000476837158
				}
			},
			"name":"\u041c\u0430\u0442\u0435\u0440\u0438\u0430\u043b",
			"pbrMetallicRoughness":{
				"baseColorFactor":[
					0.005382569041103125,
					0.010967733338475227,
					0.2140323966741562,
					1
				],
				"metallicFactor":0,
				"roughnessFactor":0.665354311466217
			}
		},
		{
			"doubleSided":true,
			"extensions":{
				"KHR_materials_specular":{
					"specularColorFactor":[
						0.6441876739264709,
						0.6441876739264709,
						0.6441876739264709
					]
				},
				"KHR_materials_ior":{
					"ior":1.4500000476837158
				}
			},
			"name":"\u041c\u0430\u0442\u0435\u0440\u0438\u0430\u043b.004",
			"pbrMetallicRoughness":{
				"baseColorFactor":[
					0,
					0,
					0,
					1
				],
				"metallicFactor":0.06299212574958801,
				"roughnessFactor":0.5944882035255432
			}
		},
		{
			"doubleSided":true,
			"extensions":{
				"KHR_materials_specular":{
					"specularColorFactor":[
						2.2313168772156122,
						2.2313168772156122,
						2.2313168772156122
					]
				},
				"KHR_materials_ior":{
					"ior":1.4500000476837158
				}
			},
			"name":"\u041c\u0430\u0442\u0435\u0440\u0438\u0430\u043b.002",
			"pbrMetallicRoughness":{
				"baseColorFactor":[
					0.1574333906173706,
					0.1574333906173706,
					0.1574333906173706,
					1
				],
				"metallicFactor":0.6771653294563293,
				"roughnessFactor":0.21653541922569275
			}
		},
		{
			"doubleSided":true,
			"extensions":{
				"KHR_materials_specular":{
					"specularColorFactor":[
						1.48443252131297,
						1.48443252131297,
						1.48443252131297
					]
				},
				"KHR_materials_ior":{
					"ior":1.4500000476837158
				}
			},
			"name":"\u041c\u0430\u0442\u0435\u0440\u0438\u0430\u043b.003",
			"pbrMetallicRoughness":{
				"baseColorFactor":[
					0.8000000715255737,
					0.5683134198188782,
					0.01618410274386406,
					1
				],
				"metallicFactor":0.18110236525535583,
				"roughnessFactor":0.5
			}
		}
	],
	"meshes":[
		{
			"name":"\u041e\u043a\u0440\u0443\u0436\u043d\u043e\u0441\u0442\u044c.001",
			"primitives":[
				{
					"attributes":{
						"POSITION":0,
						"NORMAL":1,
						"TEXCOORD_0":2
					},
					"indices":3,
					"material":0
				}
			]
		},
		{
			"name":"\u0426\u0438\u043b\u0438\u043d\u0434\u0440",
			"primitives":[
				{
					"attributes":{
						"POSITION":4,
						"NORMAL":5,
						"TEXCOORD_0":6
					},
					"indices":7,
					"material":1
				}
			]
		},
		{
			"name":"\u041e\u043a\u0440\u0443\u0436\u043d\u043e\u0441\u0442\u044c.002",
			"primitives":[
				{
					"attributes":{
						"POSITION":8,
						"NORMAL":9,
						"TEXCOORD_0":10
					},
					"indices":11,
					"material":0
				}
			]
		},
		{
			"name":"\u041e\u043a\u0440\u0443\u0436\u043d\u043e\u0441\u0442\u044c.003",
			"primitives":[
				{
					"attributes":{
						"POSITION":12,
						"NORMAL":13,
						"TEXCOORD_0":14
					},
					"indices":15,
					"material":0
				}
			]
		},
		{
			"name":"\u041e\u043a\u0440\u0443\u0436\u043d\u043e\u0441\u0442\u044c.004",
			"primitives":[
				{
					"attributes":{
						"POSITION":16,
						"NORMAL":17,
						"TEXCOORD_0":18
					},
					"indices":19,
					"material":2
				}
			]
		},
		{
			"name":"\u041f\u043b\u043e\u0441\u043a\u043e\u0441\u0442\u044c.001",
			"primitives":[
				{
					"attributes":{
						"POSITION":20,
						"NORMAL":21,
						"TEXCOORD_0":22
					},
					"indices":23,
					"material":2
				}
			]
		},
		{
			"name":"\u041f\u043b\u043e\u0441\u043a\u043e\u0441\u0442\u044c.002",
			"primitives":[
				{
					"attributes":{
						"POSITION":24,
						"NORMAL":25,
						"TEXCOORD_0":26
					},
					"indices":27,
					"material":2
				}
			]
		},
		{
			"name":"\u041e\u043a\u0440\u0443\u0436\u043d\u043e\u0441\u0442\u044c.008",
			"primitives":[
				{
					"attributes":{
						"POSITION":28,
						"NORMAL":29,
						"TEXCOORD_0":30
					},
					"indices":31,
					"material":2
				}
			]
		},
		{
			"name":"\u041e\u043a\u0440\u0443\u0436\u043d\u043e\u0441\u0442\u044c.009",
			"primitives":[
				{
					"attributes":{
						"POSITION":32,
						"NORMAL":33,
						"TEXCOORD_0":34
					},
					"indices":35,
					"material":3
				}
			]
		},
		{
			"name":"\u041a\u0443\u0431",
			"primitives":[
				{
					"attributes":{
						"POSITION":36,
						"NORMAL":37,
						"TEXCOORD_0":38
					},
					"indices":39,
					"material":4
				}
			]
		},
		{
			"name":"\u041e\u043a\u0440\u0443\u0436\u043d\u043e\u0441\u0442\u044c.010",
			"primitives":[
				{
					"attributes":{
						"POSITION":40,
						"NORMAL":41,
						"TEXCOORD_0":42
					},
					"indices":43,
					"material":0
				}
			]
		},
		{
			"name":"\u041e\u043a\u0440\u0443\u0436\u043d\u043e\u0441\u0442\u044c.013",
			"primitives":[
				{
					"attributes":{
						"POSITION":44,
						"NORMAL":45,
						"TEXCOORD_0":46
					},
					"indices":47,
					"material":4
				}
			]
		}
	],
	"accessors":[
		{
			"bufferView":0,
			"componentType":5126,
			"count":352,
			"max":[
				1.028171420097351,
				0.19120493531227112,
				1.028171420097351
			],
			"min":[
				-1.028171420097351,
				0,
				-1.028171420097351
			],
			"type":"VEC3"
		},
		{
			"bufferView":1,
			"componentType":5126,
			"count":352,
			"type":"VEC3"
		},
		{
			"bufferView":2,
			"componentType":5126,
			"count":352,
			"type":"VEC2"
		},
		{
			"bufferView":3,
			"componentType":5123,
			"count":1332,
			"type":"SCALAR"
		},
		{
			"bufferView":4,
			"componentType":5126,
			"count":130,
			"max":[
				1,
				1,
				1
			],
			"min":[
				-1,
				-1,
				-1
			],
			"type":"VEC3"
		},
		{
			"bufferView":5,
			"componentType":5126,
			"count":130,
			"type":"VEC3"
		},
		{
			"bufferView":6,
			"componentType":5126,
			"count":130,
			"type":"VEC2"
		},
		{
			"bufferView":7,
			"componentType":5123,
			"count":372,
			"type":"SCALAR"
		},
		{
			"bufferView":8,
			"componentType":5126,
			"count":288,
			"max":[
				1.0643521547317505,
				0.7473310232162476,
				1.0643521547317505
			],
			"min":[
				-1.0643521547317505,
				0,
				-1.0643521547317505
			],
			"type":"VEC3"
		},
		{
			"bufferView":9,
			"componentType":5126,
			"count":288,
			"type":"VEC3"
		},
		{
			"bufferView":10,
			"componentType":5126,
			"count":288,
			"type":"VEC2"
		},
		{
			"bufferView":11,
			"componentType":5123,
			"count":1242,
			"type":"SCALAR"
		},
		{
			"bufferView":12,
			"componentType":5126,
			"count":256,
			"max":[
				1.0089154243469238,
				0.058149561285972595,
				1.0089154243469238
			],
			"min":[
				-1.0089154243469238,
				0,
				-1.0089154243469238
			],
			"type":"VEC3"
		},
		{
			"bufferView":13,
			"componentType":5126,
			"count":256,
			"type":"VEC3"
		},
		{
			"bufferView":14,
			"componentType":5126,
			"count":256,
			"type":"VEC2"
		},
		{
			"bufferView":15,
			"componentType":5123,
			"count":756,
			"type":"SCALAR"
		},
		{
			"bufferView":16,
			"componentType":5126,
			"count":96,
			"max":[
				1,
				0.43911582231521606,
				1
			],
			"min":[
				-1,
				0,
				-1
			],
			"type":"VEC3"
		},
		{
			"bufferView":17,
			"componentType":5126,
			"count":96,
			"type":"VEC3"
		},
		{
			"bufferView":18,
			"componentType":5126,
			"count":96,
			"type":"VEC2"
		},
		{
			"bufferView":19,
			"componentType":5123,
			"count":282,
			"type":"SCALAR"
		},
		{
			"bufferView":20,
			"componentType":5126,
			"count":204,
			"max":[
				1.9868849515914917,
				0.003760967403650284,
				1.0003609657287598
			],
			"min":[
				-1.1193875074386597,
				-0.5508581399917603,
				-1.0003609657287598
			],
			"type":"VEC3"
		},
		{
			"bufferView":21,
			"componentType":5126,
			"count":204,
			"type":"VEC3"
		},
		{
			"bufferView":22,
			"componentType":5126,
			"count":204,
			"type":"VEC2"
		},
		{
			"bufferView":23,
			"componentType":5123,
			"count":600,
			"type":"SCALAR"
		},
		{
			"bufferView":24,
			"componentType":5126,
			"count":280,
			"max":[
				1.98280668258667,
				0.09060053527355194,
				1.074005126953125
			],
			"min":[
				-1,
				-0.5508581399917603,
				-1.073830008506775
			],
			"type":"VEC3"
		},
		{
			"bufferView":25,
			"componentType":5126,
			"count":280,
			"type":"VEC3"
		},
		{
			"bufferView":26,
			"componentType":5126,
			"count":280,
			"type":"VEC2"
		},
		{
			"bufferView":27,
			"componentType":5123,
			"count":744,
			"type":"SCALAR"
		},
		{
			"bufferView":28,
			"componentType":5126,
			"count":896,
			"max":[
				1,
				1.4189784526824951,
				1
			],
			"min":[
				-1,
				0,
				-1
			],
			"type":"VEC3"
		},
		{
			"bufferView":29,
			"componentType":5126,
			"count":896,
			"type":"VEC3"
		},
		{
			"bufferView":30,
			"componentType":5126,
			"count":896,
			"type":"VEC2"
		},
		{
			"bufferView":31,
			"componentType":5123,
			"count":2604,
			"type":"SCALAR"
		},
		{
			"bufferView":32,
			"componentType":5126,
			"count":256,
			"max":[
				-2.0118911266326904,
				5.41976261138916,
				0.14510945975780487
			],
			"min":[
				-4.440023422241211,
				5.129544258117676,
				-0.14510951936244965
			],
			"type":"VEC3"
		},
		{
			"bufferView":33,
			"componentType":5126,
			"count":256,
			"type":"VEC3"
		},
		{
			"bufferView":34,
			"componentType":5126,
			"count":256,
			"type":"VEC2"
		},
		{
			"bufferView":35,
			"componentType":5123,
			"count":768,
			"type":"SCALAR"
		},
		{
			"bufferView":36,
			"componentType":5126,
			"count":24,
			"max":[
				1,
				1,
				1
			],
			"min":[
				-1,
				-1,
				-1
			],
			"type":"VEC3"
		},
		{
			"bufferView":37,
			"componentType":5126,
			"count":24,
			"type":"VEC3"
		},
		{
			"bufferView":38,
			"componentType":5126,
			"count":24,
			"type":"VEC2"
		},
		{
			"bufferView":39,
			"componentType":5123,
			"count":36,
			"type":"SCALAR"
		},
		{
			"bufferView":40,
			"componentType":5126,
			"count":64,
			"max":[
				1,
				4.696751594543457,
				1
			],
			"min":[
				-1,
				-0.29342120885849,
				-1
			],
			"type":"VEC3"
		},
		{
			"bufferView":41,
			"componentType":5126,
			"count":64,
			"type":"VEC3"
		},
		{
			"bufferView":42,
			"componentType":5126,
			"count":64,
			"type":"VEC2"
		},
		{
			"bufferView":43,
			"componentType":5123,
			"count":192,
			"type":"SCALAR"
		},
		{
			"bufferView":44,
			"componentType":5126,
			"count":160,
			"max":[
				1.1201756000518799,
				0.8211568593978882,
				1.1267834901809692
			],
			"min":[
				-1.1201756000518799,
				0,
				-1.1267834901809692
			],
			"type":"VEC3"
		},
		{
			"bufferView":45,
			"componentType":5126,
			"count":160,
			"type":"VEC3"
		},
		{
			"bufferView":46,
			"componentType":5126,
			"count":160,
			"type":"VEC2"
		},
		{
			"bufferView":47,
			"componentType":5123,
			"count":372,
			"type":"SCALAR"
		}
	],
	"bufferViews":[
		{
			"buffer":0,
			"byteLength":4224,
			"byteOffset":0,
			"target":34962
		},
		{
			"buffer":0,
			"byteLength":4224,
			"byteOffset":4224,
			"target":34962
		},
		{
			"buffer":0,
			"byteLength":2816,
			"byteOffset":8448,
			"target":34962
		},
		{
			"buffer":0,
			"byteLength":2664,
			"byteOffset":11264,
			"target":34963
		},
		{
			"buffer":0,
			"byteLength":1560,
			"byteOffset":13928,
			"target":34962
		},
		{
			"buffer":0,
			"byteLength":1560,
			"byteOffset":15488,
			"target":34962
		},
		{
			"buffer":0,
			"byteLength":1040,
			"byteOffset":17048,
			"target":34962
		},
		{
			"buffer":0,
			"byteLength":744,
			"byteOffset":18088,
			"target":34963
		},
		{
			"buffer":0,
			"byteLength":3456,
			"byteOffset":18832,
			"target":34962
		},
		{
			"buffer":0,
			"byteLength":3456,
			"byteOffset":22288,
			"target":34962
		},
		{
			"buffer":0,
			"byteLength":2304,
			"byteOffset":25744,
			"target":34962
		},
		{
			"buffer":0,
			"byteLength":2484,
			"byteOffset":28048,
			"target":34963
		},
		{
			"buffer":0,
			"byteLength":3072,
			"byteOffset":30532,
			"target":34962
		},
		{
			"buffer":0,
			"byteLength":3072,
			"byteOffset":33604,
			"target":34962
		},
		{
			"buffer":0,
			"byteLength":2048,
			"byteOffset":36676,
			"target":34962
		},
		{
			"buffer":0,
			"byteLength":1512,
			"byteOffset":38724,
			"target":34963
		},
		{
			"buffer":0,
			"byteLength":1152,
			"byteOffset":40236,
			"target":34962
		},
		{
			"buffer":0,
			"byteLength":1152,
			"byteOffset":41388,
			"target":34962
		},
		{
			"buffer":0,
			"byteLength":768,
			"byteOffset":42540,
			"target":34962
		},
		{
			"buffer":0,
			"byteLength":564,
			"byteOffset":43308,
			"target":34963
		},
		{
			"buffer":0,
			"byteLength":2448,
			"byteOffset":43872,
			"target":34962
		},
		{
			"buffer":0,
			"byteLength":2448,
			"byteOffset":46320,
			"target":34962
		},
		{
			"buffer":0,
			"byteLength":1632,
			"byteOffset":48768,
			"target":34962
		},
		{
			"buffer":0,
			"byteLength":1200,
			"byteOffset":50400,
			"target":34963
		},
		{
			"buffer":0,
			"byteLength":3360,
			"byteOffset":51600,
			"target":34962
		},
		{
			"buffer":0,
			"byteLength":3360,
			"byteOffset":54960,
			"target":34962
		},
		{
			"buffer":0,
			"byteLength":2240,
			"byteOffset":58320,
			"target":34962
		},
		{
			"buffer":0,
			"byteLength":1488,
			"byteOffset":60560,
			"target":34963
		},
		{
			"buffer":0,
			"byteLength":10752,
			"byteOffset":62048,
			"target":34962
		},
		{
			"buffer":0,
			"byteLength":10752,
			"byteOffset":72800,
			"target":34962
		},
		{
			"buffer":0,
			"byteLength":7168,
			"byteOffset":83552,
			"target":34962
		},
		{
			"buffer":0,
			"byteLength":5208,
			"byteOffset":90720,
			"target":34963
		},
		{
			"buffer":0,
			"byteLength":3072,
			"byteOffset":95928,
			"target":34962
		},
		{
			"buffer":0,
			"byteLength":3072,
			"byteOffset":99000,
			"target":34962
		},
		{
			"buffer":0,
			"byteLength":2048,
			"byteOffset":102072,
			"target":34962
		},
		{
			"buffer":0,
			"byteLength":1536,
			"byteOffset":104120,
			"target":34963
		},
		{
			"buffer":0,
			"byteLength":288,
			"byteOffset":105656,
			"target":34962
		},
		{
			"buffer":0,
			"byteLength":288,
			"byteOffset":105944,
			"target":34962
		},
		{
			"buffer":0,
			"byteLength":192,
			"byteOffset":106232,
			"target":34962
		},
		{
			"buffer":0,
			"byteLength":72,
			"byteOffset":106424,
			"target":34963
		},
		{
			"buffer":0,
			"byteLength":768,
			"byteOffset":106496,
			"target":34962
		},
		{
			"buffer":0,
			"byteLength":768,
			"byteOffset":107264,
			"target":34962
		},
		{
			"buffer":0,
			"byteLength":512,
			"byteOffset":108032,
			"target":34962
		},
		{
			"buffer":0,
			"byteLength":384,
			"byteOffset":108544,
			"target":34963
		},
		{
			"buffer":0,
			"byteLength":1920,
			"byteOffset":108928,
			"target":34962
		},
		{
			"buffer":0,
			"byteLength":1920,
			"byteOffset":110848,
			"target":34962
		},
		{
			"buffer":0,
			"byteLength":1280,
			"byteOffset":112768,
			"target":34962
		},
		{
			"buffer":0,
			"byteLength":744,
			"byteOffset":114048,
			"target":34963
		}
	],
	"buffers":[
		{
			"byteLength":114792,
			"uri":"data:application/octet-stream;base64,"
		}
	]
}
