{
	"asset":{
		"generator":"Khronos glTF Blender I/O v3.6.27",
		"version":"2.0"
	},
	"scene":0,
	"scenes":[
		{
			"name":"Scene",
			"nodes":[
				0,
				1,
				2,
				3,
				4,
				5,
				6,
				7,
				8,
				9,
				10,
				11
			]
		}
	],
	"nodes":[
		{
			"mesh":0,
			"name":"Sphere"
		},
		{
			"mesh":1,
			"name":"Cylinder",
			"rotation":[
				0,
				-0.7067725658416748,
				0,
				0.7074408531188965
			],
			"scale":[
				1.0579140186309814,
				0.28465068340301514,
				1.0579140186309814
			],
			"translation":[
				0,
				-3.5269041061401367,
				0
			]
		},
		{
			"mesh":2,
			"name":"BezierCurve",
			"rotation":[
				0,
				0,
				-0.7071068286895752,
				0.7071068286895752
			],
			"translation":[
				1.1893129348754883,
				0,
				0
			]
		},
		{
			"mesh":3,
			"name":"Cube",
			"rotation":[
				0.0005503696156665683,
				0.0047615994699299335,
				0.11482807993888855,
				0.9933738708496094
			],
			"scale":[
				0.9222201108932495,
				0.06091407686471939,
				0.20748019218444824
			],
			"translation":[
				-0.7142593860626221,
				1.225100040435791,
				0
			]
		},
		{
			"mesh":4,
			"name":"Cube.001",
			"rotation":[
				0.0015543601475656033,
				0.0045344093814492226,
				-0.09991241991519928,
				0.9949846863746643
			],
			"scale":[
				0.922904372215271,
				0.062441546469926834,
				0.22860059142112732
			],
			"translation":[
				-0.6913191676139832,
				1.6039321422576904,
				0
			]
		},
		{
			"mesh":5,
			"name":"Sphere.001",
			"scale":[
				0.026109781116247177,
				0.026109781116247177,
				0.026109781116247177
			],
			"translation":[
				0.1461026966571808,
				1.477279782295227,
				-0.22062043845653534
			]
		},
		{
			"mesh":6,
			"name":"Sphere.002",
			"scale":[
				0.026109781116247177,
				0.026109781116247177,
				0.026109781116247177
			],
			"translation":[
				0.1461026966571808,
				1.477279782295227,
				0.2088465839624405
			]
		},
		{
			"mesh":7,
			"name":"Circle",
			"rotation":[
				0.7071068286895752,
				0,
				0,
				0.7071068286895752
			],
			"scale":[
				0.15636064112186432,
				0.15636064112186432,
				0.15636064112186432
			],
			"translation":[
				-0.023050524294376373,
				1.2823041677474976,
				-0.20323805510997772
			]
		},
		{
			"mesh":8,
			"name":"Cube.002",
			"rotation":[
				0,
				1,
				0,
				0
			],
			"scale":[
				-0.020802918821573257,
				-0.057970061898231506,
				-0.003471618751063943
			],
			"translation":[
				-0.023229513317346573,
				1.3575853109359741,
				-0.2601415514945984
			]
		},
		{
			"mesh":9,
			"name":"35e48f-transformed",
			"rotation":[
				0,
				-0.7071068286895752,
				0.7071068286895752,
				1.1520233300643667e-07
			],
			"scale":[
				0.36835023760795593,
				0.36835023760795593,
				0.36835023760795593
			],
			"translation":[
				-0.024273773655295372,
				1.2846320867538452,
				-0.25091230869293213
			]
		},
		{
			"mesh":10,
			"name":"Circle.002",
			"rotation":[
				0.7071068286895752,
				0,
				0,
				0.7071068286895752
			],
			"translation":[
				-0.12717893719673157,
				1.5098237991333008,
				-0.3400287628173828
			]
		},
		{
			"mesh":11,
			"name":"ognetushitel_poroshkovyy_op_4_z_avse_3_full",
			"rotation":[
				0,
				-0.7071068286895752,
				0.7071068286895752,
				1.1520233300643667e-07
			],
			"scale":[
				3.611680746078491,
				2.6762588024139404,
				2.6762588024139404
			],
			"translation":[
				-0.12717893719673157,
				-1.2726383209228516,
				-1.163443684577942
			]
		}
	],
	"materials":[
		{
			"doubleSided":true,
			"name":"Material.001",
			"pbrMetallicRoughness":{
				"baseColorFactor":[
					0.8000000715255737,
					0.0016138487262651324,
					0,
					1
				],
				"metallicFactor":0,
				"roughnessFactor":0.5
			}
		},
		{
			"doubleSided":true,
			"name":"Material.003",
			"pbrMetallicRoughness":{
				"baseColorFactor":[
					0.800000011920929,
					0.800000011920929,
					0.800000011920929,
					1
				],
				"metallicFactor":0.8500000238418579,
				"roughnessFactor":0.18333333730697632
			}
		},
		{
			"doubleSided":true,
			"name":"Material.002",
			"pbrMetallicRoughness":{
				"baseColorFactor":[
					0,
					0,
					0,
					1
				],
				"metallicFactor":0,
				"roughnessFactor":0.5
			}
		},
		{
			"doubleSided":true,
			"name":"Material.004",
			"pbrMetallicRoughness":{
				"baseColorFactor":[
					0.800000011920929,
					0.800000011920929,
					0.800000011920929,
					1
				],
				"metallicFactor":0.800000011920929,
				"roughnessFactor":0.15000003576278687
			}
		},
		{
			"doubleSided":true,
			"name":"Material.005",
			"pbrMetallicRoughness":{
				"baseColorFactor":[
					0.800000011920929,
					0.800000011920929,
					0.800000011920929,
					1
				],
				"metallicFactor":0.8500000238418579,
				"roughnessFactor":0.5
			}
		},
		{
			"doubleSided":true,
			"name":"Material.006",
			"pbrMetallicRoughness":{
				"baseColorFactor":[
					0.800000011920929,
					0.800000011920929,
					0.800000011920929,
					1
				],
				"metallicFactor":0.5,
				"roughnessFactor":0.5
			}
		},
		{
			"doubleSided":true,
			"name":"Material.010",
			"pbrMetallicRoughness":{
				"baseColorFactor":[
					0.800000011920929,
					0.800000011920929,
					0.800000011920929,
					1
				],
				"roughnessFactor":0.15000000596046448
			}
		},
		{
			"doubleSided":true,
			"name":"Material.008",
			"pbrMetallicRoughness":{
				"baseColorFactor":[
					0,
					0,
					0,
					1
				],
				"metallicFactor":0.7166666984558105,
				"roughnessFactor":0.19999998807907104
			}
		},
		{
			"alphaMode":"BLEND",
			"doubleSided":true,
			"name":"35e48f-transformed",
			"pbrMetallicRoughness":{
				"baseColorTexture":{
					"index":0
				},
				"metallicFactor":0,
				"roughnessFactor":0.5
			}
		},
		{
			"alphaMode":"BLEND",
			"doubleSided":true,
			"name":"ognetushitel_poroshkovyy_op_4_z_avse_3_full",
			"pbrMetallicRoughness":{
				"baseColorTexture":{
					"index":1
				},
				"metallicFactor":0,
				"roughnessFactor":0.5
			}
		}
	],
	"meshes":[
		{
			"name":"\u041c\u0435\u0448",
			"primitives":[
				{
					"attributes":{
						"POSITION":0,
						"NORMAL":1,
						"TEXCOORD_0":2
					},
					"indices":3,
					"material":0
				},
				{
					"attributes":{
						"POSITION":4,
						"NORMAL":5,
						"TEXCOORD_0":6
					},
					"indices":7,
					"material":1
				}
			]
		},
		{
			"name":"Cylinder",
			"primitives":[
				{
					"attributes":{
						"POSITION":8,
						"NORMAL":9,
						"TEXCOORD_0":10
					},
					"indices":11,
					"material":2
				}
			]
		},
		{
			"name":"BezierCurve",
			"primitives":[
				{
					"attributes":{
						"POSITION":12,
						"NORMAL":13,
						"TEXCOORD_0":14
					},
					"indices":15,
					"material":2
				},
				{
					"attributes":{
						"POSITION":16,
						"NORMAL":17,
						"TEXCOORD_0":18
					},
					"indices":19,
					"material":3
				}
			]
		},
		{
			"name":"Cube.001",
			"primitives":[
				{
					"attributes":{
						"POSITION":20,
						"NORMAL":21,
						"TEXCOORD_0":22
					},
					"indices":23,
					"material":2
				}
			]
		},
		{
			"name":"Cube.002",
			"primitives":[
				{
					"attributes":{
						"POSITION":24,
						"NORMAL":25,
						"TEXCOORD_0":26
					},
					"indices":27,
					"material":2
				}
			]
		},
		{
			"name":"Sphere.001",
			"primitives":[
				{
					"attributes":{
						"POSITION":28,
						"NORMAL":29,
						"TEXCOORD_0":30
					},
					"indices":31,
					"material":4
				}
			]
		},
		{
			"name":"Sphere.002",
			"primitives":[
				{
					"attributes":{
						"POSITION":32,
						"NORMAL":33,
						"TEXCOORD_0":34
					},
					"indices":31,
					"material":5
				}
			]
		},
		{
			"name":"Circle.004",
			"primitives":[
				{
					"attributes":{
						"POSITION":35,
						"NORMAL":36,
						"TEXCOORD_0":37
					},
					"indices":38,
					"material":6
				}
			]
		},
		{
			"name":"Cube.003",
			"primitives":[
				{
					"attributes":{
						"POSITION":39,
						"NORMAL":40,
						"TEXCOORD_0":41
					},
					"indices":42,
					"material":7
				}
			]
		},
		{
			"name":"35e48f-transformed",
			"primitives":[
				{
					"attributes":{
						"POSITION":43,
						"NORMAL":44,
						"TEXCOORD_0":45
					},
					"indices":46,
					"material":8
				}
			]
		},
		{
			"name":"Circle",
			"primitives":[
				{
					"attributes":{
						"POSITION":47,
						"NORMAL":48,
						"TEXCOORD_0":49
					},
					"indices":50
				}
			]
		},
		{
			"name":"ognetushitel_poroshkovyy_op_4_z_avse_3_full",
			"primitives":[
				{
					"attributes":{
						"POSITION":51,
						"NORMAL":52,
						"TEXCOORD_0":53
					},
					"indices":54,
					"material":9
				}
			]
		}
	],
	"textures":[
		{
			"sampler":0,
			"source":0
		},
		{
			"sampler":0,
			"source":1
		}
	],
	"images":[
		{
			"bufferView":47,
			"mimeType":"image/png",
			"name":"shkala"
		},
		{
			"bufferView":56,
			"mimeType":"image/png",
			"name":"UiOT4_4b1bk"
		}
	],
	"accessors":[
		{
			"bufferView":0,
			"componentType":5126,
			"count":3104,
			"max":[
				0.990440845489502,
				0.8496995568275452,
				0.9904405474662781
			],
			"min":[
				-0.990440309047699,
				-3.7366929054260254,
				-0.9904410243034363
			],
			"type":"VEC3"
		},
		{
			"bufferView":1,
			"componentType":5126,
			"count":3104,
			"type":"VEC3"
		},
		{
			"bufferView":2,
			"componentType":5126,
			"count":3104,
			"type":"VEC2"
		},
		{
			"bufferView":3,
			"componentType":5123,
			"count":17256,
			"type":"SCALAR"
		},
		{
			"bufferView":4,
			"componentType":5126,
			"count":2617,
			"max":[
				0.4651884436607361,
				1.4344696998596191,
				0.4464733600616455
			],
			"min":[
				-0.38084492087364197,
				0.8460394144058228,
				-0.4158961772918701
			],
			"type":"VEC3"
		},
		{
			"bufferView":5,
			"componentType":5126,
			"count":2617,
			"type":"VEC3"
		},
		{
			"bufferView":6,
			"componentType":5126,
			"count":2617,
			"type":"VEC2"
		},
		{
			"bufferView":7,
			"componentType":5123,
			"count":13128,
			"type":"SCALAR"
		},
		{
			"bufferView":8,
			"componentType":5126,
			"count":409,
			"max":[
				1,
				1,
				1
			],
			"min":[
				-1,
				-1,
				-1.2780559062957764
			],
			"type":"VEC3"
		},
		{
			"bufferView":9,
			"componentType":5126,
			"count":409,
			"type":"VEC3"
		},
		{
			"bufferView":10,
			"componentType":5126,
			"count":409,
			"type":"VEC2"
		},
		{
			"bufferView":11,
			"componentType":5123,
			"count":1212,
			"type":"SCALAR"
		},
		{
			"bufferView":12,
			"componentType":5126,
			"count":494,
			"max":[
				3.6670024394989014,
				0.2965841293334961,
				0.13017791509628296
			],
			"min":[
				-1.3736430406570435,
				-1.203694224357605,
				-0.3430580794811249
			],
			"type":"VEC3"
		},
		{
			"bufferView":13,
			"componentType":5126,
			"count":494,
			"type":"VEC3"
		},
		{
			"bufferView":14,
			"componentType":5126,
			"count":494,
			"type":"VEC2"
		},
		{
			"bufferView":15,
			"componentType":5123,
			"count":2592,
			"type":"SCALAR"
		},
		{
			"bufferView":16,
			"componentType":5126,
			"count":39,
			"max":[
				-1.1522092819213867,
				-0.8702288269996643,
				0.10659517347812653
			],
			"min":[
				-1.3736430406570435,
				-1.038408875465393,
				-0.10973145067691803
			],
			"type":"VEC3"
		},
		{
			"bufferView":17,
			"componentType":5126,
			"count":39,
			"type":"VEC3"
		},
		{
			"bufferView":18,
			"componentType":5126,
			"count":39,
			"type":"VEC2"
		},
		{
			"bufferView":19,
			"componentType":5123,
			"count":144,
			"type":"SCALAR"
		},
		{
			"bufferView":20,
			"componentType":5126,
			"count":221,
			"max":[
				1,
				4.134926795959473,
				1
			],
			"min":[
				-1,
				-0.4814995527267456,
				-1
			],
			"type":"VEC3"
		},
		{
			"bufferView":21,
			"componentType":5126,
			"count":221,
			"type":"VEC3"
		},
		{
			"bufferView":22,
			"componentType":5126,
			"count":221,
			"type":"VEC2"
		},
		{
			"bufferView":23,
			"componentType":5123,
			"count":660,
			"type":"SCALAR"
		},
		{
			"bufferView":24,
			"componentType":5126,
			"count":240,
			"max":[
				1,
				4.134926795959473,
				1
			],
			"min":[
				-1,
				-0.4814995527267456,
				-1
			],
			"type":"VEC3"
		},
		{
			"bufferView":25,
			"componentType":5126,
			"count":240,
			"type":"VEC3"
		},
		{
			"bufferView":26,
			"componentType":5126,
			"count":240,
			"type":"VEC2"
		},
		{
			"bufferView":27,
			"componentType":5123,
			"count":756,
			"type":"SCALAR"
		},
		{
			"bufferView":28,
			"componentType":5126,
			"count":559,
			"max":[
				0.9999997019767761,
				1,
				0.9999993443489075
			],
			"min":[
				-0.9999990463256836,
				-1,
				-1
			],
			"type":"VEC3"
		},
		{
			"bufferView":29,
			"componentType":5126,
			"count":559,
			"type":"VEC3"
		},
		{
			"bufferView":30,
			"componentType":5126,
			"count":559,
			"type":"VEC2"
		},
		{
			"bufferView":31,
			"componentType":5123,
			"count":2880,
			"type":"SCALAR"
		},
		{
			"bufferView":32,
			"componentType":5126,
			"count":559,
			"max":[
				0.9999997019767761,
				1,
				0.9999993443489075
			],
			"min":[
				-0.9999990463256836,
				-1,
				-1
			],
			"type":"VEC3"
		},
		{
			"bufferView":33,
			"componentType":5126,
			"count":559,
			"type":"VEC3"
		},
		{
			"bufferView":34,
			"componentType":5126,
			"count":559,
			"type":"VEC2"
		},
		{
			"bufferView":35,
			"componentType":5126,
			"count":197,
			"max":[
				1.090000033378601,
				0,
				1.090000033378601
			],
			"min":[
				-1.090000033378601,
				-0.7451666593551636,
				-1.090000033378601
			],
			"type":"VEC3"
		},
		{
			"bufferView":36,
			"componentType":5126,
			"count":197,
			"type":"VEC3"
		},
		{
			"bufferView":37,
			"componentType":5126,
			"count":197,
			"type":"VEC2"
		},
		{
			"bufferView":38,
			"componentType":5123,
			"count":708,
			"type":"SCALAR"
		},
		{
			"bufferView":39,
			"componentType":5126,
			"count":24,
			"max":[
				1,
				1,
				1
			],
			"min":[
				-1,
				-1,
				-1
			],
			"type":"VEC3"
		},
		{
			"bufferView":40,
			"componentType":5126,
			"count":24,
			"type":"VEC3"
		},
		{
			"bufferView":41,
			"componentType":5126,
			"count":24,
			"type":"VEC2"
		},
		{
			"bufferView":42,
			"componentType":5123,
			"count":36,
			"type":"SCALAR"
		},
		{
			"bufferView":43,
			"componentType":5126,
			"count":4,
			"max":[
				0.5,
				0,
				0.5
			],
			"min":[
				-0.5,
				0,
				-0.5
			],
			"type":"VEC3"
		},
		{
			"bufferView":44,
			"componentType":5126,
			"count":4,
			"type":"VEC3"
		},
		{
			"bufferView":45,
			"componentType":5126,
			"count":4,
			"type":"VEC2"
		},
		{
			"bufferView":46,
			"componentType":5123,
			"count":6,
			"type":"SCALAR"
		},
		{
			"bufferView":48,
			"componentType":5126,
			"count":192,
			"max":[
				0.25759708881378174,
				0.03778896480798721,
				0.3891682028770447
			],
			"min":[
				-0.055756792426109314,
				0.028723526746034622,
				0.07581429183483124
			],
			"type":"VEC3"
		},
		{
			"bufferView":49,
			"componentType":5126,
			"count":192,
			"type":"VEC3"
		},
		{
			"bufferView":50,
			"componentType":5126,
			"count":192,
			"type":"VEC2"
		},
		{
			"bufferView":51,
			"componentType":5123,
			"count":372,
			"type":"SCALAR"
		},
		{
			"bufferView":52,
			"componentType":5126,
			"count":289,
			"max":[
				0.1604943871498108,
				-0.06278860569000244,
				0.49964264035224915
			],
			"min":[
				-0.21007412672042847,
				-0.17513418197631836,
				-0.4994211196899414
			],
			"type":"VEC3"
		},
		{
			"bufferView":53,
			"componentType":5126,
			"count":289,
			"type":"VEC3"
		},
		{
			"bufferView":54,
			"componentType":5126,
			"count":289,
			"type":"VEC2"
		},
		{
			"bufferView":55,
			"componentType":5123,
			"count":1536,
			"type":"SCALAR"
		}
	],
	"bufferViews":[
		{
			"buffer":0,
			"byteLength":37248,
			"byteOffset":0,
			"target":34962
		},
		{
			"buffer":0,
			"byteLength":37248,
			"byteOffset":37248,
			"target":34962
		},
		{
			"buffer":0,
			"byteLength":24832,
			"byteOffset":74496,
			"target":34962
		},
		{
			"buffer":0,
			"byteLength":34512,
			"byteOffset":99328,
			"target":34963
		},
		{
			"buffer":0,
			"byteLength":31404,
			"byteOffset":133840,
			"target":34962
		},
		{
			"buffer":0,
			"byteLength":31404,
			"byteOffset":165244,
			"target":34962
		},
		{
			"buffer":0,
			"byteLength":20936,
			"byteOffset":196648,
			"target":34962
		},
		{
			"buffer":0,
			"byteLength":26256,
			"byteOffset":217584,
			"target":34963
		},
		{
			"buffer":0,
			"byteLength":4908,
			"byteOffset":243840,
			"target":34962
		},
		{
			"buffer":0,
			"byteLength":4908,
			"byteOffset":248748,
			"target":34962
		},
		{
			"buffer":0,
			"byteLength":3272,
			"byteOffset":253656,
			"target":34962
		},
		{
			"buffer":0,
			"byteLength":2424,
			"byteOffset":256928,
			"target":34963
		},
		{
			"buffer":0,
			"byteLength":5928,
			"byteOffset":259352,
			"target":34962
		},
		{
			"buffer":0,
			"byteLength":5928,
			"byteOffset":265280,
			"target":34962
		},
		{
			"buffer":0,
			"byteLength":3952,
			"byteOffset":271208,
			"target":34962
		},
		{
			"buffer":0,
			"byteLength":5184,
			"byteOffset":275160,
			"target":34963
		},
		{
			"buffer":0,
			"byteLength":468,
			"byteOffset":280344,
			"target":34962
		},
		{
			"buffer":0,
			"byteLength":468,
			"byteOffset":280812,
			"target":34962
		},
		{
			"buffer":0,
			"byteLength":312,
			"byteOffset":281280,
			"target":34962
		},
		{
			"buffer":0,
			"byteLength":288,
			"byteOffset":281592,
			"target":34963
		},
		{
			"buffer":0,
			"byteLength":2652,
			"byteOffset":281880,
			"target":34962
		},
		{
			"buffer":0,
			"byteLength":2652,
			"byteOffset":284532,
			"target":34962
		},
		{
			"buffer":0,
			"byteLength":1768,
			"byteOffset":287184,
			"target":34962
		},
		{
			"buffer":0,
			"byteLength":1320,
			"byteOffset":288952,
			"target":34963
		},
		{
			"buffer":0,
			"byteLength":2880,
			"byteOffset":290272,
			"target":34962
		},
		{
			"buffer":0,
			"byteLength":2880,
			"byteOffset":293152,
			"target":34962
		},
		{
			"buffer":0,
			"byteLength":1920,
			"byteOffset":296032,
			"target":34962
		},
		{
			"buffer":0,
			"byteLength":1512,
			"byteOffset":297952,
			"target":34963
		},
		{
			"buffer":0,
			"byteLength":6708,
			"byteOffset":299464,
			"target":34962
		},
		{
			"buffer":0,
			"byteLength":6708,
			"byteOffset":306172,
			"target":34962
		},
		{
			"buffer":0,
			"byteLength":4472,
			"byteOffset":312880,
			"target":34962
		},
		{
			"buffer":0,
			"byteLength":5760,
			"byteOffset":317352,
			"target":34963
		},
		{
			"buffer":0,
			"byteLength":6708,
			"byteOffset":323112,
			"target":34962
		},
		{
			"buffer":0,
			"byteLength":6708,
			"byteOffset":329820,
			"target":34962
		},
		{
			"buffer":0,
			"byteLength":4472,
			"byteOffset":336528,
			"target":34962
		},
		{
			"buffer":0,
			"byteLength":2364,
			"byteOffset":341000,
			"target":34962
		},
		{
			"buffer":0,
			"byteLength":2364,
			"byteOffset":343364,
			"target":34962
		},
		{
			"buffer":0,
			"byteLength":1576,
			"byteOffset":345728,
			"target":34962
		},
		{
			"buffer":0,
			"byteLength":1416,
			"byteOffset":347304,
			"target":34963
		},
		{
			"buffer":0,
			"byteLength":288,
			"byteOffset":348720,
			"target":34962
		},
		{
			"buffer":0,
			"byteLength":288,
			"byteOffset":349008,
			"target":34962
		},
		{
			"buffer":0,
			"byteLength":192,
			"byteOffset":349296,
			"target":34962
		},
		{
			"buffer":0,
			"byteLength":72,
			"byteOffset":349488,
			"target":34963
		},
		{
			"buffer":0,
			"byteLength":48,
			"byteOffset":349560,
			"target":34962
		},
		{
			"buffer":0,
			"byteLength":48,
			"byteOffset":349608,
			"target":34962
		},
		{
			"buffer":0,
			"byteLength":32,
			"byteOffset":349656,
			"target":34962
		},
		{
			"buffer":0,
			"byteLength":12,
			"byteOffset":349688,
			"target":34963
		},
		{
			"buffer":0,
			"byteLength":137979,
			"byteOffset":349700
		},
		{
			"buffer":0,
			"byteLength":2304,
			"byteOffset":487680,
			"target":34962
		},
		{
			"buffer":0,
			"byteLength":2304,
			"byteOffset":489984,
			"target":34962
		},
		{
			"buffer":0,
			"byteLength":1536,
			"byteOffset":492288,
			"target":34962
		},
		{
			"buffer":0,
			"byteLength":744,
			"byteOffset":493824,
			"target":34963
		},
		{
			"buffer":0,
			"byteLength":3468,
			"byteOffset":494568,
			"target":34962
		},
		{
			"buffer":0,
			"byteLength":3468,
			"byteOffset":498036,
			"target":34962
		},
		{
			"buffer":0,
			"byteLength":2312,
			"byteOffset":501504,
			"target":34962
		},
		{
			"buffer":0,
			"byteLength":3072,
			"byteOffset":503816,
			"target":34963
		},
		{
			"buffer":0,
			"byteLength":520122,
			"byteOffset":506888
		}
	],
	"samplers":[
		{
			"magFilter":9729,
			"minFilter":9987,
			"wrapS":33071,
			"wrapT":33071
		}
	],
	"buffers":[
		{
			"byteLength":1027012,
			"uri":"data:application/octet-stream;base64,"
		}
	]
}
