# Blender v2.82 (sub 7) OBJ File: 'flour.blend'
# www.blender.org
mtllib pol.mtl
o Cube_Cube.001
v -2.939634 0.652675 5.561472
v -2.939634 0.834910 5.561472
v -2.939634 0.652675 -11.954058
v -2.939634 0.834910 -11.954058
v 9.183494 0.652675 5.561472
v 9.183494 0.834910 5.561472
v 9.183494 0.652675 -11.954058
v 9.183494 0.834910 -11.954058
vt -0.575296 -5.808276
vt 1.575296 -5.808276
vt 1.575296 -2.654138
vt -0.575296 -2.654138
vt 1.575296 0.500000
vt -0.575296 0.500000
vt 1.575296 3.654138
vt -0.575296 3.654138
vt 1.575296 6.808276
vt -0.575296 6.808276
vt -2.725888 0.500000
vt -2.725888 3.654138
vt 3.725888 0.500000
vt 3.725888 3.654138
vn -1.0000 0.0000 0.0000
vn 0.0000 0.0000 -1.0000
vn 1.0000 0.0000 0.0000
vn 0.0000 0.0000 1.0000
vn 0.0000 -1.0000 0.0000
vn 0.0000 1.0000 0.0000
usemtl Material.001
s off
f 1/1/1 2/2/1 4/3/1 3/4/1
f 3/4/2 4/3/2 8/5/2 7/6/2
f 7/6/3 8/5/3 6/7/3 5/8/3
f 5/8/4 6/7/4 2/9/4 1/10/4
f 3/11/5 7/6/5 5/8/5 1/12/5
f 8/5/6 4/13/6 2/14/6 6/7/6
