# Blender 3.5.1
# www.blender.org
o BezierCircle
v -0.298005 0.000404 -0.157446
v -0.291918 0.001315 -0.223994
v -0.279246 0.001754 -0.277064
v -0.257593 0.001236 -0.312636
v -0.224564 -0.000722 -0.326690
v -0.200091 -0.002136 -0.320592
v -0.188738 -0.001760 -0.300904
v -0.180316 0.000000 -0.267787
v -0.162584 0.000014 -0.236557
v -0.120123 0.000783 -0.221248
v -0.095960 -0.001897 -0.190010
v -0.091430 -0.004499 -0.146471
v -0.071600 -0.001076 -0.084470
v -0.040196 0.001583 -0.050328
v -0.027561 0.000566 0.007147
v 0.000292 -0.000035 0.062989
v 0.042833 -0.001395 0.102838
v 0.061998 0.000000 0.136233
v 0.065652 0.001990 0.184306
v 0.064260 0.002002 0.219560
v 0.044492 -0.000507 0.247828
v -0.300000 -0.000906 0.247828
l 1 2
l 2 3
l 3 4
l 4 5
l 5 6
l 6 7
l 7 8
l 8 9
l 9 10
l 10 11
l 11 12
l 12 13
l 13 14
l 14 15
l 15 16
l 16 17
l 17 18
l 18 19
l 19 20
l 20 21
l 21 22
l 22 1
o Frame
v 1.917828 0.048619 0.917828
v 1.913524 0.069168 0.913524
v 1.904564 0.085556 0.904564
v 1.889253 0.096541 0.889253
v 1.865898 0.100881 0.865898
v 1.848593 0.098998 0.848593
v 1.840565 0.092918 0.840565
v 1.834610 0.082692 0.834610
v 1.822071 0.073048 0.822071
v 1.792047 0.068320 0.792047
v 1.774961 0.058674 0.774961
v 1.771758 0.045230 0.771758
v 1.757736 0.026084 0.757736
v 1.735530 0.015541 0.735530
v 1.726596 -0.002207 0.726596
v 1.706900 -0.019451 0.706900
v 1.676819 -0.031756 0.676819
v 1.663267 -0.042068 0.663267
v 1.660684 -0.056913 0.660684
v 1.661668 -0.067799 0.661668
v 1.675646 -0.076528 0.675646
v 1.919239 -0.076528 0.919239
v -0.917828 0.048619 0.917828
v -0.913524 0.069168 0.913524
v -0.904563 0.085556 0.904564
v -0.889252 0.096541 0.889253
v -0.865898 0.100881 0.865898
v -0.848593 0.098998 0.848593
v -0.840565 0.092918 0.840565
v -0.834610 0.082692 0.834610
v -0.822071 0.073048 0.822071
v -0.792047 0.068320 0.792047
v -0.774961 0.058674 0.774961
v -0.771758 0.045230 0.771758
v -0.757736 0.026084 0.757736
v -0.735530 0.015541 0.735530
v -0.726596 -0.002207 0.726596
v -0.706900 -0.019451 0.706900
v -0.676820 -0.031756 0.676820
v -0.663267 -0.042068 0.663267
v -0.660684 -0.056913 0.660684
v -0.661668 -0.067799 0.661668
v -0.675646 -0.076528 0.675646
v -0.919239 -0.076528 0.919239
v -0.917828 0.048619 -2.917828
v -0.913524 0.069168 -2.913524
v -0.904564 0.085556 -2.904563
v -0.889253 0.096541 -2.889252
v -0.865898 0.100881 -2.865898
v -0.848593 0.098998 -2.848593
v -0.840565 0.092918 -2.840565
v -0.834610 0.082692 -2.834610
v -0.822072 0.073048 -2.822071
v -0.792047 0.068320 -2.792047
v -0.774961 0.058674 -2.774961
v -0.771758 0.045230 -2.771758
v -0.757736 0.026084 -2.757736
v -0.735530 0.015541 -2.735530
v -0.726596 -0.002207 -2.726596
v -0.706901 -0.019451 -2.706900
v -0.676820 -0.031756 -2.676820
v -0.663268 -0.042068 -2.663267
v -0.660684 -0.056913 -2.660684
v -0.661668 -0.067799 -2.661668
v -0.675646 -0.076528 -2.675646
v -0.919239 -0.076528 -2.919239
v 1.917828 0.048619 -2.917828
v 1.913524 0.069168 -2.913524
v 1.904563 0.085556 -2.904563
v 1.889252 0.096541 -2.889252
v 1.865898 0.100881 -2.865898
v 1.848593 0.098998 -2.848593
v 1.840565 0.092918 -2.840565
v 1.834610 0.082692 -2.834610
v 1.822071 0.073048 -2.822071
v 1.792047 0.068320 -2.792047
v 1.774961 0.058674 -2.774961
v 1.771758 0.045230 -2.771758
v 1.757736 0.026084 -2.757736
v 1.735530 0.015541 -2.735530
v 1.726596 -0.002207 -2.726596
v 1.706900 -0.019451 -2.706900
v 1.676820 -0.031756 -2.676820
v 1.663267 -0.042068 -2.663267
v 1.660684 -0.056913 -2.660684
v 1.661668 -0.067799 -2.661668
v 1.675646 -0.076528 -2.675646
v 1.919239 -0.076528 -2.919239
vn 0.6990 0.1511 0.6990
vn -0.6990 0.1511 0.6990
vn -0.2841 -0.9157 0.2841
vn 0.2841 -0.9157 0.2841
vn 0.6286 0.4581 0.6286
vn -0.6286 0.4581 0.6286
vn 0.4436 0.7787 0.4436
vn -0.4436 0.7787 0.4436
vn 0.2175 0.9515 0.2175
vn -0.2175 0.9515 0.2175
vn 0.0512 0.9974 0.0512
vn -0.0512 0.9974 0.0512
vn -0.1089 0.9881 -0.1089
vn 0.1089 0.9881 -0.1089
vn -0.4083 0.8165 -0.4083
vn 0.4083 0.8165 -0.4083
vn -0.4470 0.7748 -0.4470
vn 0.4470 0.7748 -0.4470
vn -0.2172 0.9517 -0.2172
vn 0.2172 0.9517 -0.2172
vn -0.1194 0.9856 -0.1194
vn 0.1194 0.9856 -0.1194
vn -0.3899 0.8342 -0.3899
vn 0.3899 0.8342 -0.3899
vn -0.5932 0.5442 -0.5932
vn 0.5932 0.5442 -0.5932
vn -0.3591 0.8615 -0.3591
vn 0.3591 0.8615 -0.3591
vn -0.3206 0.8913 -0.3206
vn 0.3206 0.8913 -0.3206
vn -0.4801 0.7342 -0.4801
vn 0.4801 0.7342 -0.4801
vn -0.2931 0.9101 -0.2931
vn 0.2931 0.9101 -0.2931
vn -0.2364 0.9424 -0.2364
vn 0.2364 0.9424 -0.2364
vn -0.4712 0.7457 -0.4712
vn 0.4712 0.7457 -0.4712
vn -0.7058 0.0604 -0.7058
vn 0.7058 0.0604 -0.7058
vn -0.4368 -0.7864 -0.4368
vn 0.4368 -0.7864 -0.4368
vn -0.0555 -0.9969 -0.0555
vn 0.0555 -0.9969 -0.0555
vn -0.6990 0.1511 -0.6990
vn -0.2841 -0.9157 -0.2841
vn -0.6286 0.4581 -0.6286
vn -0.4436 0.7787 -0.4436
vn -0.2175 0.9515 -0.2175
vn -0.0512 0.9974 -0.0512
vn 0.1089 0.9881 0.1089
vn 0.4083 0.8165 0.4083
vn 0.4470 0.7748 0.4470
vn 0.2172 0.9517 0.2172
vn 0.1194 0.9856 0.1194
vn 0.3899 0.8342 0.3899
vn 0.5932 0.5442 0.5932
vn 0.3591 0.8615 0.3591
vn 0.3206 0.8913 0.3206
vn 0.4801 0.7342 0.4801
vn 0.2931 0.9101 0.2931
vn 0.2364 0.9424 0.2364
vn 0.4711 0.7457 0.4711
vn 0.7058 0.0604 0.7058
vn 0.4368 -0.7864 0.4368
vn 0.0555 -0.9969 0.0555
vn 0.6990 0.1511 -0.6990
vn 0.2841 -0.9157 -0.2841
vn 0.6286 0.4581 -0.6286
vn 0.4436 0.7787 -0.4436
vn 0.2175 0.9515 -0.2175
vn 0.0512 0.9974 -0.0512
vn -0.1089 0.9881 0.1089
vn -0.4083 0.8165 0.4083
vn -0.4470 0.7748 0.4470
vn -0.2172 0.9517 0.2172
vn -0.1194 0.9856 0.1194
vn -0.3899 0.8342 0.3899
vn -0.5932 0.5442 0.5932
vn -0.3591 0.8615 0.3591
vn -0.3206 0.8913 0.3206
vn -0.4801 0.7342 0.4801
vn -0.2931 0.9101 0.2931
vn -0.2364 0.9424 0.2364
vn -0.4711 0.7457 0.4711
vn -0.7058 0.0604 0.7058
vn -0.4368 -0.7864 0.4368
vn -0.0555 -0.9969 0.0555
vt 0.000000 1.000000
vt 0.000000 0.000000
vt 1.000000 1.000000
vt 1.000000 0.000000
vt 0.000000 0.045455
vt 1.000000 0.045455
vt 0.000000 0.090909
vt 1.000000 0.090909
vt 0.000000 0.136364
vt 1.000000 0.136364
vt 0.000000 0.181818
vt 1.000000 0.181818
vt 0.000000 0.227273
vt 1.000000 0.227273
vt 0.000000 0.272727
vt 1.000000 0.272727
vt 0.000000 0.318182
vt 1.000000 0.318182
vt 0.000000 0.363636
vt 1.000000 0.363636
vt 0.000000 0.409091
vt 1.000000 0.409091
vt 0.000000 0.454545
vt 1.000000 0.454545
vt 0.000000 0.500000
vt 1.000000 0.500000
vt 0.000000 0.545455
vt 1.000000 0.545455
vt 0.000000 0.590909
vt 1.000000 0.590909
vt 0.000000 0.636364
vt 1.000000 0.636364
vt 0.000000 0.681818
vt 1.000000 0.681818
vt 0.000000 0.727273
vt 1.000000 0.727273
vt 0.000000 0.772727
vt 1.000000 0.772727
vt 0.000000 0.818182
vt 1.000000 0.818182
vt 0.000000 0.863636
vt 1.000000 0.863636
vt 0.000000 0.909091
vt 1.000000 0.909091
vt 0.000000 0.954545
vt 1.000000 0.954545
vt 0.250000 1.000000
vt 0.250000 0.000000
vt 0.250000 0.045455
vt 0.250000 0.090909
vt 0.250000 0.136364
vt 0.250000 0.181818
vt 0.250000 0.227273
vt 0.250000 0.272727
vt 0.250000 0.318182
vt 0.250000 0.363636
vt 0.250000 0.409091
vt 0.250000 0.454545
vt 0.250000 0.500000
vt 0.250000 0.545455
vt 0.250000 0.590909
vt 0.250000 0.636364
vt 0.250000 0.681818
vt 0.250000 0.727273
vt 0.250000 0.772727
vt 0.250000 0.818182
vt 0.250000 0.863636
vt 0.250000 0.909091
vt 0.250000 0.954545
vt 0.500000 1.000000
vt 0.500000 0.000000
vt 0.500000 0.045455
vt 0.500000 0.090909
vt 0.500000 0.136364
vt 0.500000 0.181818
vt 0.500000 0.227273
vt 0.500000 0.272727
vt 0.500000 0.318182
vt 0.500000 0.363636
vt 0.500000 0.409091
vt 0.500000 0.454545
vt 0.500000 0.500000
vt 0.500000 0.545455
vt 0.500000 0.590909
vt 0.500000 0.636364
vt 0.500000 0.681818
vt 0.500000 0.727273
vt 0.500000 0.772727
vt 0.500000 0.818182
vt 0.500000 0.863636
vt 0.500000 0.909091
vt 0.500000 0.954545
vt 0.750000 1.000000
vt 0.750000 0.000000
vt 0.750000 0.045455
vt 0.750000 0.090909
vt 0.750000 0.136364
vt 0.750000 0.181818
vt 0.750000 0.227273
vt 0.750000 0.272727
vt 0.750000 0.318182
vt 0.750000 0.363636
vt 0.750000 0.409091
vt 0.750000 0.454545
vt 0.750000 0.500000
vt 0.750000 0.545455
vt 0.750000 0.590909
vt 0.750000 0.636364
vt 0.750000 0.681818
vt 0.750000 0.727273
vt 0.750000 0.772727
vt 0.750000 0.818182
vt 0.750000 0.863636
vt 0.750000 0.909091
vt 0.750000 0.954545
s 1
f 23/1/1 45/47/2 66/69/3 44/45/4
f 24/5/5 46/49/6 45/48/2 23/2/1
f 25/7/7 47/50/8 46/49/6 24/5/5
f 26/9/9 48/51/10 47/50/8 25/7/7
f 27/11/11 49/52/12 48/51/10 26/9/9
f 28/13/13 50/53/14 49/52/12 27/11/11
f 29/15/15 51/54/16 50/53/14 28/13/13
f 30/17/17 52/55/18 51/54/16 29/15/15
f 31/19/19 53/56/20 52/55/18 30/17/17
f 32/21/21 54/57/22 53/56/20 31/19/19
f 33/23/23 55/58/24 54/57/22 32/21/21
f 34/25/25 56/59/26 55/58/24 33/23/23
f 35/27/27 57/60/28 56/59/26 34/25/25
f 36/29/29 58/61/30 57/60/28 35/27/27
f 37/31/31 59/62/32 58/61/30 36/29/29
f 38/33/33 60/63/34 59/62/32 37/31/31
f 39/35/35 61/64/36 60/63/34 38/33/33
f 40/37/37 62/65/38 61/64/36 39/35/35
f 41/39/39 63/66/40 62/65/38 40/37/37
f 42/41/41 64/67/42 63/66/40 41/39/39
f 43/43/43 65/68/44 64/67/42 42/41/41
f 44/45/4 66/69/3 65/68/44 43/43/43
f 45/47/2 67/70/45 88/92/46 66/69/3
f 46/49/6 68/72/47 67/71/45 45/48/2
f 47/50/8 69/73/48 68/72/47 46/49/6
f 48/51/10 70/74/49 69/73/48 47/50/8
f 49/52/12 71/75/50 70/74/49 48/51/10
f 50/53/14 72/76/51 71/75/50 49/52/12
f 51/54/16 73/77/52 72/76/51 50/53/14
f 52/55/18 74/78/53 73/77/52 51/54/16
f 53/56/20 75/79/54 74/78/53 52/55/18
f 54/57/22 76/80/55 75/79/54 53/56/20
f 55/58/24 77/81/56 76/80/55 54/57/22
f 56/59/26 78/82/57 77/81/56 55/58/24
f 57/60/28 79/83/58 78/82/57 56/59/26
f 58/61/30 80/84/59 79/83/58 57/60/28
f 59/62/32 81/85/60 80/84/59 58/61/30
f 60/63/34 82/86/61 81/85/60 59/62/32
f 61/64/36 83/87/62 82/86/61 60/63/34
f 62/65/38 84/88/63 83/87/62 61/64/36
f 63/66/40 85/89/64 84/88/63 62/65/38
f 64/67/42 86/90/65 85/89/64 63/66/40
f 65/68/44 87/91/66 86/90/65 64/67/42
f 66/69/3 88/92/46 87/91/66 65/68/44
f 67/70/45 89/93/67 110/115/68 88/92/46
f 68/72/47 90/95/69 89/94/67 67/71/45
f 69/73/48 91/96/70 90/95/69 68/72/47
f 70/74/49 92/97/71 91/96/70 69/73/48
f 71/75/50 93/98/72 92/97/71 70/74/49
f 72/76/51 94/99/73 93/98/72 71/75/50
f 73/77/52 95/100/74 94/99/73 72/76/51
f 74/78/53 96/101/75 95/100/74 73/77/52
f 75/79/54 97/102/76 96/101/75 74/78/53
f 76/80/55 98/103/77 97/102/76 75/79/54
f 77/81/56 99/104/78 98/103/77 76/80/55
f 78/82/57 100/105/79 99/104/78 77/81/56
f 79/83/58 101/106/80 100/105/79 78/82/57
f 80/84/59 102/107/81 101/106/80 79/83/58
f 81/85/60 103/108/82 102/107/81 80/84/59
f 82/86/61 104/109/83 103/108/82 81/85/60
f 83/87/62 105/110/84 104/109/83 82/86/61
f 84/88/63 106/111/85 105/110/84 83/87/62
f 85/89/64 107/112/86 106/111/85 84/88/63
f 86/90/65 108/113/87 107/112/86 85/89/64
f 87/91/66 109/114/88 108/113/87 86/90/65
f 88/92/46 110/115/68 109/114/88 87/91/66
f 89/93/67 23/3/1 44/46/4 110/115/68
f 90/95/69 24/6/5 23/4/1 89/94/67
f 91/96/70 25/8/7 24/6/5 90/95/69
f 92/97/71 26/10/9 25/8/7 91/96/70
f 93/98/72 27/12/11 26/10/9 92/97/71
f 94/99/73 28/14/13 27/12/11 93/98/72
f 95/100/74 29/16/15 28/14/13 94/99/73
f 96/101/75 30/18/17 29/16/15 95/100/74
f 97/102/76 31/20/19 30/18/17 96/101/75
f 98/103/77 32/22/21 31/20/19 97/102/76
f 99/104/78 33/24/23 32/22/21 98/103/77
f 100/105/79 34/26/25 33/24/23 99/104/78
f 101/106/80 35/28/27 34/26/25 100/105/79
f 102/107/81 36/30/29 35/28/27 101/106/80
f 103/108/82 37/32/31 36/30/29 102/107/81
f 104/109/83 38/34/33 37/32/31 103/108/82
f 105/110/84 39/36/35 38/34/33 104/109/83
f 106/111/85 40/38/37 39/36/35 105/110/84
f 107/112/86 41/40/39 40/38/37 106/111/85
f 108/113/87 42/42/41 41/40/39 107/112/86
f 109/114/88 43/44/43 42/42/41 108/113/87
f 110/115/68 44/46/4 43/44/43 109/114/88
