{
	"asset":{
		"generator":"Khronos glTF Blender I/O v3.6.27",
		"version":"2.0"
	},
	"scene":0,
	"scenes":[
		{
			"name":"Scene",
			"nodes":[
				0,
				1,
				2,
				3,
				4,
				5
			]
		}
	],
	"nodes":[
		{
			"mesh":0,
			"name":"Circle",
			"scale":[
				1.7677359580993652,
				1.7677359580993652,
				1.7677359580993652
			]
		},
		{
			"mesh":1,
			"name":"Cube",
			"scale":[
				0.5532574653625488,
				0.5532574653625488,
				0.5532574653625488
			],
			"translation":[
				0,
				1.7980493307113647,
				0
			]
		},
		{
			"mesh":2,
			"name":"Cylinder",
			"rotation":[
				0.5,
				-0.5,
				-0.5,
				0.5000000596046448
			],
			"scale":[
				0.21707072854042053,
				0.21707072854042053,
				0.21707072854042053
			],
			"translation":[
				0,
				1.803026556968689,
				1.0061694383621216
			]
		},
		{
			"mesh":3,
			"name":"Circle.001",
			"rotation":[
				0.7071068286895752,
				0,
				0,
				0.7071068286895752
			],
			"scale":[
				0.400093138217926,
				0.400093138217926,
				0.400093138217926
			],
			"translation":[
				-0.0075140707194805145,
				1.7903467416763306,
				1.1678874492645264
			]
		},
		{
			"mesh":4,
			"name":"Circle.002",
			"rotation":[
				-0.7071068286895752,
				0,
				0,
				0.7071068286895752
			],
			"scale":[
				0.3539201319217682,
				0.3539201319217682,
				0.3539201319217682
			],
			"translation":[
				0,
				1.7928804159164429,
				-0.9404343366622925
			]
		},
		{
			"mesh":5,
			"name":"Circle.003",
			"scale":[
				0.43485045433044434,
				0.43485045433044434,
				0.43485045433044434
			],
			"translation":[
				0,
				2.2576491832733154,
				0
			]
		}
	],
	"materials":[
		{
			"doubleSided":true,
			"name":"Material.011",
			"pbrMetallicRoughness":{
				"baseColorFactor":[
					0.03310231864452362,
					0.03310231864452362,
					0.03310231864452362,
					1
				],
				"metallicFactor":0
			}
		},
		{
			"doubleSided":true,
			"name":"Material.004",
			"pbrMetallicRoughness":{
				"baseColorFactor":[
					0.2590000033378601,
					0.2590000033378601,
					0.2590000033378601,
					1
				],
				"metallicFactor":0.6880000233650208,
				"roughnessFactor":0.05999999865889549
			}
		},
		{
			"doubleSided":true,
			"name":"Material.002",
			"pbrMetallicRoughness":{
				"baseColorFactor":[
					0.060450877994298935,
					0.060450877994298935,
					0.060450877994298935,
					1
				],
				"metallicFactor":0,
				"roughnessFactor":0.5
			}
		},
		{
			"doubleSided":true,
			"name":"Material.001",
			"pbrMetallicRoughness":{
				"baseColorFactor":[
					0,
					0,
					0,
					1
				],
				"metallicFactor":0,
				"roughnessFactor":0.5
			}
		},
		{
			"doubleSided":true,
			"name":"Material.005",
			"pbrMetallicRoughness":{
				"baseColorFactor":[
					0.2590000033378601,
					0.2590000033378601,
					0.2590000033378601,
					1
				],
				"metallicFactor":0.6880000233650208,
				"roughnessFactor":0.05999999865889549
			}
		},
		{
			"doubleSided":true,
			"name":"Material.003",
			"pbrMetallicRoughness":{
				"baseColorFactor":[
					0.2585444152355194,
					0.2585444152355194,
					0.2585444152355194,
					1
				],
				"metallicFactor":0.6880733966827393,
				"roughnessFactor":0.0596330463886261
			}
		}
	],
	"meshes":[
		{
			"name":"Circle",
			"primitives":[
				{
					"attributes":{
						"POSITION":0,
						"NORMAL":1,
						"TEXCOORD_0":2
					},
					"indices":3,
					"material":0
				}
			]
		},
		{
			"name":"Cube.001",
			"primitives":[
				{
					"attributes":{
						"POSITION":4,
						"NORMAL":5,
						"TEXCOORD_0":6
					},
					"indices":7,
					"material":1
				}
			]
		},
		{
			"name":"Cylinder",
			"primitives":[
				{
					"attributes":{
						"POSITION":8,
						"NORMAL":9,
						"TEXCOORD_0":10
					},
					"indices":11,
					"material":2
				}
			]
		},
		{
			"name":"Circle.001",
			"primitives":[
				{
					"attributes":{
						"POSITION":12,
						"NORMAL":13,
						"TEXCOORD_0":14
					},
					"indices":15,
					"material":3
				}
			]
		},
		{
			"name":"Circle.002",
			"primitives":[
				{
					"attributes":{
						"POSITION":16,
						"NORMAL":17,
						"TEXCOORD_0":18
					},
					"indices":19,
					"material":4
				}
			]
		},
		{
			"name":"Circle.003",
			"primitives":[
				{
					"attributes":{
						"POSITION":20,
						"NORMAL":21,
						"TEXCOORD_0":22
					},
					"indices":23,
					"material":5
				}
			]
		}
	],
	"accessors":[
		{
			"bufferView":0,
			"componentType":5126,
			"count":288,
			"max":[
				1,
				0.7205071449279785,
				1
			],
			"min":[
				-1,
				0,
				-1
			],
			"type":"VEC3"
		},
		{
			"bufferView":1,
			"componentType":5126,
			"count":288,
			"type":"VEC3"
		},
		{
			"bufferView":2,
			"componentType":5126,
			"count":288,
			"type":"VEC2"
		},
		{
			"bufferView":3,
			"componentType":5123,
			"count":1524,
			"type":"SCALAR"
		},
		{
			"bufferView":4,
			"componentType":5126,
			"count":40,
			"max":[
				1,
				1,
				1.6414222717285156
			],
			"min":[
				-1,
				-1,
				-1.7633229494094849
			],
			"type":"VEC3"
		},
		{
			"bufferView":5,
			"componentType":5126,
			"count":40,
			"type":"VEC3"
		},
		{
			"bufferView":6,
			"componentType":5126,
			"count":40,
			"type":"VEC2"
		},
		{
			"bufferView":7,
			"componentType":5123,
			"count":84,
			"type":"SCALAR"
		},
		{
			"bufferView":8,
			"componentType":5126,
			"count":130,
			"max":[
				1,
				1,
				1
			],
			"min":[
				-1,
				-1,
				-1
			],
			"type":"VEC3"
		},
		{
			"bufferView":9,
			"componentType":5126,
			"count":130,
			"type":"VEC3"
		},
		{
			"bufferView":10,
			"componentType":5126,
			"count":130,
			"type":"VEC2"
		},
		{
			"bufferView":11,
			"componentType":5123,
			"count":372,
			"type":"SCALAR"
		},
		{
			"bufferView":12,
			"componentType":5126,
			"count":403,
			"max":[
				1.3130784034729004,
				1.3839088678359985,
				1.2842867374420166
			],
			"min":[
				-1.3130781650543213,
				-0.2326967418193817,
				-1.322722315788269
			],
			"type":"VEC3"
		},
		{
			"bufferView":13,
			"componentType":5126,
			"count":403,
			"type":"VEC3"
		},
		{
			"bufferView":14,
			"componentType":5126,
			"count":403,
			"type":"VEC2"
		},
		{
			"bufferView":15,
			"componentType":5123,
			"count":846,
			"type":"SCALAR"
		},
		{
			"bufferView":16,
			"componentType":5126,
			"count":672,
			"max":[
				1,
				5.678488254547119,
				1
			],
			"min":[
				-1,
				0,
				-1
			],
			"type":"VEC3"
		},
		{
			"bufferView":17,
			"componentType":5126,
			"count":672,
			"type":"VEC3"
		},
		{
			"bufferView":18,
			"componentType":5126,
			"count":672,
			"type":"VEC2"
		},
		{
			"bufferView":19,
			"componentType":5123,
			"count":2112,
			"type":"SCALAR"
		},
		{
			"bufferView":20,
			"componentType":5126,
			"count":2496,
			"max":[
				1.1210530996322632,
				14.19151496887207,
				1.1210527420043945
			],
			"min":[
				-1.121052861213684,
				4.76837158203125e-07,
				-1.1210527420043945
			],
			"type":"VEC3"
		},
		{
			"bufferView":21,
			"componentType":5126,
			"count":2496,
			"type":"VEC3"
		},
		{
			"bufferView":22,
			"componentType":5126,
			"count":2496,
			"type":"VEC2"
		},
		{
			"bufferView":23,
			"componentType":5123,
			"count":8004,
			"type":"SCALAR"
		}
	],
	"bufferViews":[
		{
			"buffer":0,
			"byteLength":3456,
			"byteOffset":0,
			"target":34962
		},
		{
			"buffer":0,
			"byteLength":3456,
			"byteOffset":3456,
			"target":34962
		},
		{
			"buffer":0,
			"byteLength":2304,
			"byteOffset":6912,
			"target":34962
		},
		{
			"buffer":0,
			"byteLength":3048,
			"byteOffset":9216,
			"target":34963
		},
		{
			"buffer":0,
			"byteLength":480,
			"byteOffset":12264,
			"target":34962
		},
		{
			"buffer":0,
			"byteLength":480,
			"byteOffset":12744,
			"target":34962
		},
		{
			"buffer":0,
			"byteLength":320,
			"byteOffset":13224,
			"target":34962
		},
		{
			"buffer":0,
			"byteLength":168,
			"byteOffset":13544,
			"target":34963
		},
		{
			"buffer":0,
			"byteLength":1560,
			"byteOffset":13712,
			"target":34962
		},
		{
			"buffer":0,
			"byteLength":1560,
			"byteOffset":15272,
			"target":34962
		},
		{
			"buffer":0,
			"byteLength":1040,
			"byteOffset":16832,
			"target":34962
		},
		{
			"buffer":0,
			"byteLength":744,
			"byteOffset":17872,
			"target":34963
		},
		{
			"buffer":0,
			"byteLength":4836,
			"byteOffset":18616,
			"target":34962
		},
		{
			"buffer":0,
			"byteLength":4836,
			"byteOffset":23452,
			"target":34962
		},
		{
			"buffer":0,
			"byteLength":3224,
			"byteOffset":28288,
			"target":34962
		},
		{
			"buffer":0,
			"byteLength":1692,
			"byteOffset":31512,
			"target":34963
		},
		{
			"buffer":0,
			"byteLength":8064,
			"byteOffset":33204,
			"target":34962
		},
		{
			"buffer":0,
			"byteLength":8064,
			"byteOffset":41268,
			"target":34962
		},
		{
			"buffer":0,
			"byteLength":5376,
			"byteOffset":49332,
			"target":34962
		},
		{
			"buffer":0,
			"byteLength":4224,
			"byteOffset":54708,
			"target":34963
		},
		{
			"buffer":0,
			"byteLength":29952,
			"byteOffset":58932,
			"target":34962
		},
		{
			"buffer":0,
			"byteLength":29952,
			"byteOffset":88884,
			"target":34962
		},
		{
			"buffer":0,
			"byteLength":19968,
			"byteOffset":118836,
			"target":34962
		},
		{
			"buffer":0,
			"byteLength":16008,
			"byteOffset":138804,
			"target":34963
		}
	],
	"buffers":[
		{
			"byteLength":154812,
			"uri":"data:application/octet-stream;base64,"
		}
	]
}
