{
	"asset":{
		"generator":"Khronos glTF Blender I/O v3.6.28",
		"version":"2.0"
	},
	"extensionsUsed":[
		"KHR_materials_specular",
		"KHR_materials_ior"
	],
	"scene":0,
	"scenes":[
		{
			"name":"Scene",
			"nodes":[
				7
			]
		}
	],
	"nodes":[
		{
			"mesh":0,
			"name":"keyboard.001",
			"rotation":[
				-0.6830127239227295,
				-0.6830127835273743,
				0.18301260471343994,
				0.1830126941204071
			],
			"scale":[
				0.015652399510145187,
				0.015652397647500038,
				0.015652380883693695
			],
			"translation":[
				-2.5464534759521484,
				0.6350939869880676,
				-1.9585708379745483
			]
		},
		{
			"mesh":1,
			"name":"keyboard.002",
			"rotation":[
				-0.6830127239227295,
				-0.6830127835273743,
				0.18301260471343994,
				0.1830126941204071
			],
			"scale":[
				0.015652399510145187,
				0.015652397647500038,
				0.015652380883693695
			],
			"translation":[
				-3.651430368423462,
				0.8507259488105774,
				-3.111438274383545
			]
		},
		{
			"mesh":2,
			"name":"keyboard.003",
			"rotation":[
				-0.6830127239227295,
				-0.6830127835273743,
				0.18301260471343994,
				0.1830126941204071
			],
			"scale":[
				0.015652399510145187,
				0.015652397647500038,
				0.015652380883693695
			],
			"translation":[
				2.067582607269287,
				1.3439234495162964,
				2.462736129760742
			]
		},
		{
			"mesh":3,
			"name":"keyboard.004",
			"rotation":[
				-0.6830127239227295,
				-0.6830127835273743,
				0.18301260471343994,
				0.1830126941204071
			],
			"scale":[
				0.015652399510145187,
				0.015652397647500038,
				0.015652380883693695
			],
			"translation":[
				-2.444822072982788,
				1.0797475576400757,
				-1.3696943521499634
			]
		},
		{
			"mesh":4,
			"name":"keyboard.005",
			"rotation":[
				-0.6830127239227295,
				-0.6830127835273743,
				0.18301260471343994,
				0.1830126941204071
			],
			"scale":[
				0.015652399510145187,
				0.015652397647500038,
				0.015652380883693695
			],
			"translation":[
				-3.869405746459961,
				0.9714252948760986,
				-2.675999164581299
			]
		},
		{
			"mesh":5,
			"name":"mouse.002",
			"translation":[
				-0.5551323890686035,
				-0.019505687057971954,
				0.07904355973005295
			]
		},
		{
			"children":[
				5
			],
			"mesh":6,
			"name":"mouse.001",
			"rotation":[
				0,
				-0.9537169933319092,
				0,
				0.3007056415081024
			],
			"scale":[
				11.876996994018555,
				11.876999855041504,
				11.876996994018555
			],
			"translation":[
				1.9719717502593994,
				0.3170424997806549,
				8.224452018737793
			]
		},
		{
			"children":[
				0,
				1,
				2,
				3,
				4,
				6
			],
			"name":"Group01",
			"rotation":[
				0,
				0.9659258127212524,
				0,
				0.2588190734386444
			],
			"scale":[
				0.009999999776482582,
				0.009999999776482582,
				0.009999999776482582
			]
		}
	],
	"materials":[
		{
			"doubleSided":true,
			"extensions":{
				"KHR_materials_specular":{
					"specularColorFactor":[
						2.371357614441398,
						2.371357614441398,
						2.371357614441398
					]
				},
				"KHR_materials_ior":{
					"ior":1.4500000476837158
				}
			},
			"name":"PURPLE METAL",
			"pbrMetallicRoughness":{
				"baseColorFactor":[
					0.7176470756530762,
					0.658823549747467,
					0.6274510025978088,
					1
				],
				"roughnessFactor":0.858578622341156
			}
		},
		{
			"doubleSided":true,
			"extensions":{
				"KHR_materials_specular":{
					"specularColorFactor":[
						2.371357614441398,
						2.371357614441398,
						2.371357614441398
					]
				},
				"KHR_materials_ior":{
					"ior":1.4500000476837158
				}
			},
			"name":"BLACK MATTE",
			"pbrMetallicRoughness":{
				"baseColorFactor":[
					0.007843137718737125,
					0.007843137718737125,
					0.007843137718737125,
					1
				],
				"roughnessFactor":0.8810793161392212
			}
		},
		{
			"doubleSided":true,
			"extensions":{
				"KHR_materials_specular":{
					"specularColorFactor":[
						2.371357614441398,
						2.371357614441398,
						2.371357614441398
					]
				},
				"KHR_materials_ior":{
					"ior":1.4500000476837158
				}
			},
			"name":"GREEN GLASS",
			"pbrMetallicRoughness":{
				"baseColorFactor":[
					0.19607844948768616,
					0.6470588445663452,
					0.13725490868091583,
					0.20000004768371582
				],
				"roughnessFactor":0.39371341466903687
			}
		},
		{
			"doubleSided":true,
			"extensions":{
				"KHR_materials_specular":{
					"specularColorFactor":[
						2.371357614441398,
						2.371357614441398,
						2.371357614441398
					]
				},
				"KHR_materials_ior":{
					"ior":1.4500000476837158
				}
			},
			"name":"DARK GRAY MATTE",
			"pbrMetallicRoughness":{
				"baseColorFactor":[
					0.4235294461250305,
					0.3764706254005432,
					0.33725491166114807,
					1
				],
				"roughnessFactor":0.8964735269546509
			}
		},
		{
			"doubleSided":true,
			"extensions":{
				"KHR_materials_specular":{
					"specularColorFactor":[
						2.371357614441398,
						2.371357614441398,
						2.371357614441398
					]
				},
				"KHR_materials_ior":{
					"ior":1.4500000476837158
				}
			},
			"name":"GRAY MATTE",
			"pbrMetallicRoughness":{
				"baseColorFactor":[
					0.7921569347381592,
					0.7686275243759155,
					0.729411780834198,
					1
				],
				"roughnessFactor":0.8964735269546509
			}
		},
		{
			"doubleSided":true,
			"extensions":{
				"KHR_materials_specular":{
					"specularColorFactor":[
						2.371357614441398,
						2.371357614441398,
						2.371357614441398
					]
				},
				"KHR_materials_ior":{
					"ior":1.4500000476837158
				}
			},
			"name":"WHITE PLSTC REF",
			"pbrMetallicRoughness":{
				"baseColorFactor":[
					0.9333333969116211,
					0.9333333969116211,
					0.9333333969116211,
					1
				],
				"roughnessFactor":0.37233278155326843
			}
		},
		{
			"doubleSided":true,
			"extensions":{
				"KHR_materials_specular":{
					"specularColorFactor":[
						2.371357614441398,
						2.371357614441398,
						2.371357614441398
					]
				},
				"KHR_materials_ior":{
					"ior":1.4500000476837158
				}
			},
			"name":"MOUSE",
			"pbrMetallicRoughness":{
				"baseColorFactor":[
					0.7764706015586853,
					0.7882353067398071,
					0.7411764860153198,
					1
				],
				"roughnessFactor":0.37233278155326843
			}
		}
	],
	"meshes":[
		{
			"name":"\u041c\u0435\u0448.002",
			"primitives":[
				{
					"attributes":{
						"POSITION":0,
						"NORMAL":1
					},
					"indices":2,
					"material":0
				}
			]
		},
		{
			"name":"\u041c\u0435\u0448.003",
			"primitives":[
				{
					"attributes":{
						"POSITION":3,
						"NORMAL":4
					},
					"indices":5,
					"material":1
				}
			]
		},
		{
			"name":"\u041c\u0435\u0448.004",
			"primitives":[
				{
					"attributes":{
						"POSITION":6,
						"NORMAL":7
					},
					"indices":8,
					"material":2
				}
			]
		},
		{
			"name":"\u041c\u0435\u0448.005",
			"primitives":[
				{
					"attributes":{
						"POSITION":9,
						"NORMAL":10
					},
					"indices":11,
					"material":3
				}
			]
		},
		{
			"name":"\u041c\u0435\u0448.006",
			"primitives":[
				{
					"attributes":{
						"POSITION":12,
						"NORMAL":13
					},
					"indices":14,
					"material":4
				}
			]
		},
		{
			"name":"\u041c\u0435\u0448.001",
			"primitives":[
				{
					"attributes":{
						"POSITION":15,
						"NORMAL":16,
						"TEXCOORD_0":17
					},
					"indices":18,
					"material":5
				}
			]
		},
		{
			"name":"\u041c\u0435\u0448",
			"primitives":[
				{
					"attributes":{
						"POSITION":19,
						"NORMAL":20,
						"TEXCOORD_0":21
					},
					"indices":22,
					"material":6
				}
			]
		}
	],
	"accessors":[
		{
			"bufferView":0,
			"componentType":5126,
			"count":1164,
			"max":[
				62.313232421875,
				171.82275390625,
				463.431396484375
			],
			"min":[
				-40.575439453125,
				-166.95751953125,
				-463.4031982421875
			],
			"type":"VEC3"
		},
		{
			"bufferView":1,
			"componentType":5126,
			"count":1164,
			"type":"VEC3"
		},
		{
			"bufferView":2,
			"componentType":5123,
			"count":1164,
			"type":"SCALAR"
		},
		{
			"bufferView":3,
			"componentType":5126,
			"count":27165,
			"max":[
				45.10400390625,
				146.5283203125,
				347.055419921875
			],
			"min":[
				-12.339111328125,
				-124.826171875,
				-542.333251953125
			],
			"type":"VEC3"
		},
		{
			"bufferView":4,
			"componentType":5126,
			"count":27165,
			"type":"VEC3"
		},
		{
			"bufferView":5,
			"componentType":5123,
			"count":27165,
			"type":"SCALAR"
		},
		{
			"bufferView":6,
			"componentType":5126,
			"count":108,
			"max":[
				3.768798828125,
				6.39599609375,
				33.259765625
			],
			"min":[
				-3.7684326171875,
				-6.4072265625,
				-33.368408203125
			],
			"type":"VEC3"
		},
		{
			"bufferView":7,
			"componentType":5126,
			"count":108,
			"type":"VEC3"
		},
		{
			"bufferView":8,
			"componentType":5123,
			"count":108,
			"type":"SCALAR"
		},
		{
			"bufferView":9,
			"componentType":5126,
			"count":12549,
			"max":[
				34.5174560546875,
				162.42626953125,
				478.589599609375
			],
			"min":[
				-26.63916015625,
				-134.6826171875,
				-406.1285400390625
			],
			"type":"VEC3"
		},
		{
			"bufferView":10,
			"componentType":5126,
			"count":12549,
			"type":"VEC3"
		},
		{
			"bufferView":11,
			"componentType":5123,
			"count":12549,
			"type":"SCALAR"
		},
		{
			"bufferView":12,
			"componentType":5126,
			"count":16560,
			"max":[
				22.9903564453125,
				95.08251953125,
				360.42333984375
			],
			"min":[
				-17.9901123046875,
				-95.943359375,
				-485.516845703125
			],
			"type":"VEC3"
		},
		{
			"bufferView":13,
			"componentType":5126,
			"count":16560,
			"type":"VEC3"
		},
		{
			"bufferView":14,
			"componentType":5123,
			"count":16560,
			"type":"SCALAR"
		},
		{
			"bufferView":15,
			"componentType":5126,
			"count":26124,
			"max":[
				0.45261359214782715,
				0.0023550987243652344,
				0.5108089447021484
			],
			"min":[
				-0.4104628562927246,
				-0.0023550987243652344,
				-0.31105995178222656
			],
			"type":"VEC3"
		},
		{
			"bufferView":16,
			"componentType":5126,
			"count":26124,
			"type":"VEC3"
		},
		{
			"bufferView":17,
			"componentType":5126,
			"count":26124,
			"type":"VEC2"
		},
		{
			"bufferView":18,
			"componentType":5123,
			"count":26124,
			"type":"SCALAR"
		},
		{
			"bufferView":19,
			"componentType":5126,
			"count":11244,
			"max":[
				0.1224822998046875,
				0.03573012351989746,
				0.07144641876220703
			],
			"min":[
				-0.11038541793823242,
				-0.02530360221862793,
				-0.07146358489990234
			],
			"type":"VEC3"
		},
		{
			"bufferView":20,
			"componentType":5126,
			"count":11244,
			"type":"VEC3"
		},
		{
			"bufferView":21,
			"componentType":5126,
			"count":11244,
			"type":"VEC2"
		},
		{
			"bufferView":22,
			"componentType":5123,
			"count":11244,
			"type":"SCALAR"
		}
	],
	"bufferViews":[
		{
			"buffer":0,
			"byteLength":13968,
			"byteOffset":0,
			"target":34962
		},
		{
			"buffer":0,
			"byteLength":13968,
			"byteOffset":13968,
			"target":34962
		},
		{
			"buffer":0,
			"byteLength":2328,
			"byteOffset":27936,
			"target":34963
		},
		{
			"buffer":0,
			"byteLength":325980,
			"byteOffset":30264,
			"target":34962
		},
		{
			"buffer":0,
			"byteLength":325980,
			"byteOffset":356244,
			"target":34962
		},
		{
			"buffer":0,
			"byteLength":54330,
			"byteOffset":682224,
			"target":34963
		},
		{
			"buffer":0,
			"byteLength":1296,
			"byteOffset":736556,
			"target":34962
		},
		{
			"buffer":0,
			"byteLength":1296,
			"byteOffset":737852,
			"target":34962
		},
		{
			"buffer":0,
			"byteLength":216,
			"byteOffset":739148,
			"target":34963
		},
		{
			"buffer":0,
			"byteLength":150588,
			"byteOffset":739364,
			"target":34962
		},
		{
			"buffer":0,
			"byteLength":150588,
			"byteOffset":889952,
			"target":34962
		},
		{
			"buffer":0,
			"byteLength":25098,
			"byteOffset":1040540,
			"target":34963
		},
		{
			"buffer":0,
			"byteLength":198720,
			"byteOffset":1065640,
			"target":34962
		},
		{
			"buffer":0,
			"byteLength":198720,
			"byteOffset":1264360,
			"target":34962
		},
		{
			"buffer":0,
			"byteLength":33120,
			"byteOffset":1463080,
			"target":34963
		},
		{
			"buffer":0,
			"byteLength":313488,
			"byteOffset":1496200,
			"target":34962
		},
		{
			"buffer":0,
			"byteLength":313488,
			"byteOffset":1809688,
			"target":34962
		},
		{
			"buffer":0,
			"byteLength":208992,
			"byteOffset":2123176,
			"target":34962
		},
		{
			"buffer":0,
			"byteLength":52248,
			"byteOffset":2332168,
			"target":34963
		},
		{
			"buffer":0,
			"byteLength":134928,
			"byteOffset":2384416,
			"target":34962
		},
		{
			"buffer":0,
			"byteLength":134928,
			"byteOffset":2519344,
			"target":34962
		},
		{
			"buffer":0,
			"byteLength":89952,
			"byteOffset":2654272,
			"target":34962
		},
		{
			"buffer":0,
			"byteLength":22488,
			"byteOffset":2744224,
			"target":34963
		}
	],
	"buffers":[
		{
			"byteLength":2766712,
			"uri":"data:application/octet-stream;base64,"
		}
	]
}
