# Blender v2.82 (sub 7) OBJ File: 'flour.blend'
# www.blender.org
mtllib tetrad.mtl
o Cube.007_Cube.020
v 1.456211 3.294335 -4.468094
v 1.456211 3.326147 -4.468094
v 1.456211 3.267459 -5.215053
v 1.456211 3.353024 -5.215053
v 2.486290 3.294335 -4.468094
v 2.486290 3.326147 -4.468094
v 2.486290 3.267459 -5.215053
v 2.486290 3.353024 -5.215053
vt 0.375000 0.000000
vt 0.625000 0.000000
vt 0.625000 0.250000
vt 0.375000 0.250000
vt 0.375000 0.500000
vt 0.625000 0.500000
vt 0.625000 0.750000
vt 0.375000 0.750000
vt 0.625000 1.000000
vt 0.375000 1.000000
vt 0.125000 0.500000
vt 0.125000 0.750000
vt 0.875000 0.500000
vt 0.875000 0.750000
vn -1.0000 0.0000 0.0000
vn 1.0000 0.0000 0.0000
vn 0.0000 0.0000 1.0000
vn 0.0000 0.0000 -1.0000
vn 0.0000 -0.9994 0.0360
vn 0.0000 0.9994 0.0360
usemtl Material.016
s off
f 1/1/1 2/2/1 4/3/1 3/4/1
f 7/5/2 8/6/2 6/7/2 5/8/2
f 5/8/3 6/7/3 2/9/3 1/10/3
usemtl Material.017
f 3/4/4 4/3/4 8/6/4 7/5/4
f 3/11/5 7/5/5 5/8/5 1/12/5
f 8/6/6 4/13/6 2/14/6 6/7/6
