{
	"asset":{
		"generator":"Khronos glTF Blender I/O v3.6.27",
		"version":"2.0"
	},
	"scene":0,
	"scenes":[
		{
			"name":"Scene",
			"nodes":[
				2
			]
		}
	],
	"nodes":[
		{
			"mesh":0,
			"name":"Mesh_0"
		},
		{
			"name":"Node_2"
		},
		{
			"children":[
				0,
				1
			],
			"name":"Double pipe HE"
		}
	],
	"materials":[
		{
			"doubleSided":true,
			"name":"mat_0",
			"pbrMetallicRoughness":{
				"baseColorFactor":[
					0,
					0,
					1,
					1
				],
				"roughnessFactor":0.2121320366859436
			}
		},
		{
			"doubleSided":true,
			"name":"mat_1",
			"pbrMetallicRoughness":{
				"baseColorFactor":[
					0.31397104263305664,
					0.4019777774810791,
					0.4286693036556244,
					1
				],
				"roughnessFactor":0.2121320366859436
			}
		},
		{
			"doubleSided":true,
			"name":"mat_2",
			"pbrMetallicRoughness":{
				"baseColorFactor":[
					0.03310476616024971,
					0.03310476616024971,
					0.03310476616024971,
					1
				],
				"roughnessFactor":0.2121320366859436
			}
		},
		{
			"doubleSided":true,
			"name":"mat_3",
			"pbrMetallicRoughness":{
				"baseColorFactor":[
					0.6038273572921753,
					0.31854677200317383,
					0.03310476616024971,
					1
				],
				"roughnessFactor":0.2121320366859436
			}
		}
	],
	"meshes":[
		{
			"name":"Mesh_0",
			"primitives":[
				{
					"attributes":{
						"POSITION":0,
						"NORMAL":1
					},
					"indices":2,
					"material":0
				},
				{
					"attributes":{
						"POSITION":3,
						"NORMAL":4
					},
					"indices":5,
					"material":1
				},
				{
					"attributes":{
						"POSITION":6,
						"NORMAL":7
					},
					"indices":8,
					"material":2
				},
				{
					"attributes":{
						"POSITION":9,
						"NORMAL":10
					},
					"indices":11,
					"material":3
				}
			]
		}
	],
	"accessors":[
		{
			"bufferView":0,
			"componentType":5126,
			"count":28980,
			"max":[
				0.30649998784065247,
				1.9550000429153442,
				1.7646161317825317
			],
			"min":[
				-0.30649998784065247,
				0.10499999672174454,
				-1.7712982892990112
			],
			"type":"VEC3"
		},
		{
			"bufferView":1,
			"componentType":5126,
			"count":28980,
			"type":"VEC3"
		},
		{
			"bufferView":2,
			"componentType":5123,
			"count":122214,
			"type":"SCALAR"
		},
		{
			"bufferView":3,
			"componentType":5126,
			"count":3496,
			"max":[
				0.24704210460186005,
				1.8949999809265137,
				1.5199999809265137
			],
			"min":[
				-0.24704210460186005,
				0.1732388734817505,
				-1.524999976158142
			],
			"type":"VEC3"
		},
		{
			"bufferView":4,
			"componentType":5126,
			"count":3496,
			"type":"VEC3"
		},
		{
			"bufferView":5,
			"componentType":5123,
			"count":5400,
			"type":"SCALAR"
		},
		{
			"bufferView":6,
			"componentType":5126,
			"count":25668,
			"max":[
				0.41999998688697815,
				1.9800000190734863,
				1.5099999904632568
			],
			"min":[
				-0.47999998927116394,
				-0.03999999910593033,
				-1.5099999904632568
			],
			"type":"VEC3"
		},
		{
			"bufferView":7,
			"componentType":5126,
			"count":25668,
			"type":"VEC3"
		},
		{
			"bufferView":8,
			"componentType":5123,
			"count":92868,
			"type":"SCALAR"
		},
		{
			"bufferView":9,
			"componentType":5126,
			"count":19055,
			"max":[
				0.33000001311302185,
				2.0299999713897705,
				1.5099961757659912
			],
			"min":[
				-0.33000001311302185,
				-0.04500000178813934,
				-1.5099961757659912
			],
			"type":"VEC3"
		},
		{
			"bufferView":10,
			"componentType":5126,
			"count":19055,
			"type":"VEC3"
		},
		{
			"bufferView":11,
			"componentType":5123,
			"count":49836,
			"type":"SCALAR"
		}
	],
	"bufferViews":[
		{
			"buffer":0,
			"byteLength":347760,
			"byteOffset":0,
			"target":34962
		},
		{
			"buffer":0,
			"byteLength":347760,
			"byteOffset":347760,
			"target":34962
		},
		{
			"buffer":0,
			"byteLength":244428,
			"byteOffset":695520,
			"target":34963
		},
		{
			"buffer":0,
			"byteLength":41952,
			"byteOffset":939948,
			"target":34962
		},
		{
			"buffer":0,
			"byteLength":41952,
			"byteOffset":981900,
			"target":34962
		},
		{
			"buffer":0,
			"byteLength":10800,
			"byteOffset":1023852,
			"target":34963
		},
		{
			"buffer":0,
			"byteLength":308016,
			"byteOffset":1034652,
			"target":34962
		},
		{
			"buffer":0,
			"byteLength":308016,
			"byteOffset":1342668,
			"target":34962
		},
		{
			"buffer":0,
			"byteLength":185736,
			"byteOffset":1650684,
			"target":34963
		},
		{
			"buffer":0,
			"byteLength":228660,
			"byteOffset":1836420,
			"target":34962
		},
		{
			"buffer":0,
			"byteLength":228660,
			"byteOffset":2065080,
			"target":34962
		},
		{
			"buffer":0,
			"byteLength":99672,
			"byteOffset":2293740,
			"target":34963
		}
	],
	"buffers":[
		{
			"byteLength":2393412,
			"uri":"data:application/octet-stream;base64,"
		}
	]
}
