{
	"asset":{
		"generator":"Khronos glTF Blender I/O v3.5.30",
		"version":"2.0"
	},
	"extensionsUsed":[
		"KHR_materials_specular",
		"KHR_materials_ior"
	],
	"scene":0,
	"scenes":[
		{
			"name":"Scene",
			"nodes":[
				0,
				1,
				2,
				3,
				4,
				5,
				6,
				7
			]
		}
	],
	"nodes":[
		{
			"mesh":0,
			"name":"Box001",
			"scale":[
				0.02539999969303608,
				0.02539999969303608,
				0.020320000126957893
			]
		},
		{
			"mesh":1,
			"name":"Box003",
			"scale":[
				0.02489200048148632,
				0.01742439903318882,
				0.02489200048148632
			],
			"translation":[
				0,
				0.15000000596046448,
				-0.20000000298023224
			]
		},
		{
			"mesh":2,
			"name":"Box004",
			"scale":[
				0.02539999969303608,
				0.02539999969303608,
				0.02539999969303608
			],
			"translation":[
				0,
				0.10000000149011612,
				-0.20000000298023224
			]
		},
		{
			"mesh":3,
			"name":"\u041e\u0431\u044a\u0435\u043a\u0442",
			"scale":[
				0.02539999969303608,
				0.02539999969303608,
				0.02539999969303608
			],
			"translation":[
				-0.6000000238418579,
				0.009460565634071827,
				0.75
			]
		},
		{
			"mesh":4,
			"name":"Cylinder002",
			"scale":[
				0.02539999969303608,
				0.02539999969303608,
				0.02539999969303608
			],
			"translation":[
				0.6000000238418579,
				0.009460565634071827,
				0.75
			]
		},
		{
			"mesh":5,
			"name":"Cylinder003",
			"scale":[
				0.02539999969303608,
				0.02539999969303608,
				0.02539999969303608
			],
			"translation":[
				-0.4000000059604645,
				0.009460565634071827,
				0.75
			]
		},
		{
			"mesh":6,
			"name":"Cylinder004",
			"scale":[
				0.02539999969303608,
				0.02539999969303608,
				0.02539999969303608
			],
			"translation":[
				0.4000000059604645,
				0.009460565634071827,
				0.75
			]
		},
		{
			"mesh":7,
			"name":"Box005",
			"scale":[
				0.008961120620369911,
				0.01742439903318882,
				0.004181855823844671
			],
			"translation":[
				0,
				0.045809995383024216,
				0.8000000715255737
			]
		}
	],
	"materials":[
		{
			"doubleSided":true,
			"extensions":{
				"KHR_materials_specular":{
					"specularColorFactor":[
						2.371357614441398,
						2.371357614441398,
						2.371357614441398
					]
				},
				"KHR_materials_ior":{
					"ior":1.4500000476837158
				}
			},
			"name":"Material #25",
			"pbrMetallicRoughness":{
				"baseColorFactor":[
					0.7338129878044128,
					0.6546762585639954,
					0.5,
					1
				],
				"metallicFactor":0,
				"roughnessFactor":0.5527864098548889
			}
		},
		{
			"doubleSided":true,
			"extensions":{
				"KHR_materials_specular":{
					"specularColorFactor":[
						2.371357614441398,
						2.371357614441398,
						2.371357614441398
					]
				},
				"KHR_materials_ior":{
					"ior":1.4500000476837158
				}
			},
			"name":"Material #26",
			"pbrMetallicRoughness":{
				"baseColorFactor":[
					0.699999988079071,
					0.6934942007064819,
					0.6513369083404541,
					1
				],
				"metallicFactor":0,
				"roughnessFactor":0.5527864098548889
			}
		},
		{
			"doubleSided":true,
			"extensions":{
				"KHR_materials_specular":{
					"specularColorFactor":[
						2.371357614441398,
						2.371357614441398,
						2.371357614441398
					]
				},
				"KHR_materials_ior":{
					"ior":1.4500000476837158
				}
			},
			"name":"Material #27",
			"pbrMetallicRoughness":{
				"baseColorFactor":[
					0.5,
					0.5,
					0.5,
					1
				],
				"metallicFactor":0,
				"roughnessFactor":0.5527864098548889
			}
		},
		{
			"doubleSided":true,
			"extensions":{
				"KHR_materials_specular":{
					"specularColorFactor":[
						2.371357614441398,
						2.371357614441398,
						2.371357614441398
					]
				},
				"KHR_materials_ior":{
					"ior":1.4500000476837158
				}
			},
			"name":"01 - Default",
			"pbrMetallicRoughness":{
				"baseColorFactor":[
					0.6823529601097107,
					0.501960813999176,
					0.686274528503418,
					1
				],
				"metallicFactor":0,
				"roughnessFactor":0.5527864098548889
			}
		},
		{
			"doubleSided":true,
			"extensions":{
				"KHR_materials_specular":{
					"specularColorFactor":[
						2.371357614441398,
						2.371357614441398,
						2.371357614441398
					]
				},
				"KHR_materials_ior":{
					"ior":1.4500000476837158
				}
			},
			"name":"02 - Default",
			"pbrMetallicRoughness":{
				"baseColorFactor":[
					0.5,
					0.5,
					0.5,
					1
				],
				"metallicFactor":0,
				"roughnessFactor":0.5527864098548889
			}
		},
		{
			"doubleSided":true,
			"extensions":{
				"KHR_materials_specular":{
					"specularColorFactor":[
						2.371357614441398,
						2.371357614441398,
						2.371357614441398
					]
				},
				"KHR_materials_ior":{
					"ior":1.4500000476837158
				}
			},
			"name":"03 - Default",
			"pbrMetallicRoughness":{
				"baseColorFactor":[
					0.699999988079071,
					0.6934942007064819,
					0.6513369083404541,
					1
				],
				"metallicFactor":0,
				"roughnessFactor":0.5527864098548889
			}
		},
		{
			"doubleSided":true,
			"extensions":{
				"KHR_materials_specular":{
					"specularColorFactor":[
						2.371357614441398,
						2.371357614441398,
						2.371357614441398
					]
				},
				"KHR_materials_ior":{
					"ior":1.4500000476837158
				}
			},
			"name":"Material #28",
			"pbrMetallicRoughness":{
				"baseColorFactor":[
					0,
					0,
					0,
					0.472156822681427
				],
				"metallicFactor":0,
				"roughnessFactor":0.5527864098548889
			}
		}
	],
	"meshes":[
		{
			"name":"\u041c\u0435\u0448",
			"primitives":[
				{
					"attributes":{
						"POSITION":0,
						"TEXCOORD_0":1,
						"NORMAL":2
					},
					"indices":3,
					"material":0
				}
			]
		},
		{
			"name":"\u041c\u0435\u0448.001",
			"primitives":[
				{
					"attributes":{
						"POSITION":4,
						"TEXCOORD_0":5,
						"NORMAL":6
					},
					"indices":7,
					"material":1
				}
			]
		},
		{
			"name":"\u041c\u0435\u0448.002",
			"primitives":[
				{
					"attributes":{
						"POSITION":8,
						"TEXCOORD_0":9,
						"NORMAL":10
					},
					"indices":7,
					"material":2
				}
			]
		},
		{
			"name":"\u041c\u0435\u0448.003",
			"primitives":[
				{
					"attributes":{
						"POSITION":11,
						"TEXCOORD_0":12,
						"NORMAL":13
					},
					"indices":14,
					"material":3
				}
			]
		},
		{
			"name":"\u041c\u0435\u0448.004",
			"primitives":[
				{
					"attributes":{
						"POSITION":15,
						"TEXCOORD_0":16,
						"NORMAL":17
					},
					"indices":14
				}
			]
		},
		{
			"name":"\u041c\u0435\u0448.005",
			"primitives":[
				{
					"attributes":{
						"POSITION":18,
						"TEXCOORD_0":19,
						"NORMAL":20
					},
					"indices":14,
					"material":4
				}
			]
		},
		{
			"name":"\u041c\u0435\u0448.006",
			"primitives":[
				{
					"attributes":{
						"POSITION":21,
						"TEXCOORD_0":22,
						"NORMAL":23
					},
					"indices":14,
					"material":5
				}
			]
		},
		{
			"name":"\u041c\u0435\u0448.007",
			"primitives":[
				{
					"attributes":{
						"POSITION":24,
						"TEXCOORD_0":25,
						"NORMAL":26
					},
					"indices":27,
					"material":6
				}
			]
		}
	],
	"accessors":[
		{
			"bufferView":0,
			"componentType":5126,
			"count":336,
			"max":[
				29.527559280395508,
				3.9370079040527344,
				49.21259689331055
			],
			"min":[
				-29.527559280395508,
				0,
				-49.21259689331055
			],
			"type":"VEC3"
		},
		{
			"bufferView":1,
			"componentType":5126,
			"count":336,
			"type":"VEC2"
		},
		{
			"bufferView":2,
			"componentType":5126,
			"count":336,
			"type":"VEC3"
		},
		{
			"bufferView":3,
			"componentType":5123,
			"count":948,
			"type":"SCALAR"
		},
		{
			"bufferView":4,
			"componentType":5126,
			"count":170,
			"max":[
				27.55905532836914,
				1.968501091003418,
				29.527559280395508
			],
			"min":[
				-27.55905532836914,
				0,
				-29.52756118774414
			],
			"type":"VEC3"
		},
		{
			"bufferView":5,
			"componentType":5126,
			"count":170,
			"type":"VEC2"
		},
		{
			"bufferView":6,
			"componentType":5126,
			"count":170,
			"type":"VEC3"
		},
		{
			"bufferView":7,
			"componentType":5123,
			"count":480,
			"type":"SCALAR"
		},
		{
			"bufferView":8,
			"componentType":5126,
			"count":170,
			"max":[
				27.55905532836914,
				1.968501091003418,
				29.527559280395508
			],
			"min":[
				-27.55905532836914,
				0,
				-29.52756118774414
			],
			"type":"VEC3"
		},
		{
			"bufferView":9,
			"componentType":5126,
			"count":170,
			"type":"VEC2"
		},
		{
			"bufferView":10,
			"componentType":5126,
			"count":170,
			"type":"VEC3"
		},
		{
			"bufferView":11,
			"componentType":5126,
			"count":168,
			"max":[
				3.149606227874756,
				3.9370079040527344,
				3.101757049560547
			],
			"min":[
				-3.149606227874756,
				0,
				-3.1017568111419678
			],
			"type":"VEC3"
		},
		{
			"bufferView":12,
			"componentType":5126,
			"count":168,
			"type":"VEC2"
		},
		{
			"bufferView":13,
			"componentType":5126,
			"count":168,
			"type":"VEC3"
		},
		{
			"bufferView":14,
			"componentType":5123,
			"count":636,
			"type":"SCALAR"
		},
		{
			"bufferView":15,
			"componentType":5126,
			"count":168,
			"max":[
				3.149606227874756,
				3.9370079040527344,
				3.101757049560547
			],
			"min":[
				-3.149606227874756,
				0,
				-3.1017568111419678
			],
			"type":"VEC3"
		},
		{
			"bufferView":16,
			"componentType":5126,
			"count":168,
			"type":"VEC2"
		},
		{
			"bufferView":17,
			"componentType":5126,
			"count":168,
			"type":"VEC3"
		},
		{
			"bufferView":18,
			"componentType":5126,
			"count":168,
			"max":[
				3.149606227874756,
				3.9370079040527344,
				3.101757049560547
			],
			"min":[
				-3.149606227874756,
				0,
				-3.1017568111419678
			],
			"type":"VEC3"
		},
		{
			"bufferView":19,
			"componentType":5126,
			"count":168,
			"type":"VEC2"
		},
		{
			"bufferView":20,
			"componentType":5126,
			"count":168,
			"type":"VEC3"
		},
		{
			"bufferView":21,
			"componentType":5126,
			"count":168,
			"max":[
				3.149606227874756,
				3.9370079040527344,
				3.101757049560547
			],
			"min":[
				-3.149606227874756,
				0,
				-3.1017568111419678
			],
			"type":"VEC3"
		},
		{
			"bufferView":22,
			"componentType":5126,
			"count":168,
			"type":"VEC2"
		},
		{
			"bufferView":23,
			"componentType":5126,
			"count":168,
			"type":"VEC3"
		},
		{
			"bufferView":24,
			"componentType":5126,
			"count":170,
			"max":[
				27.55905532836914,
				1.968501091003418,
				29.527559280395508
			],
			"min":[
				-27.55905532836914,
				0,
				-29.52756118774414
			],
			"type":"VEC3"
		},
		{
			"bufferView":25,
			"componentType":5126,
			"count":170,
			"type":"VEC2"
		},
		{
			"bufferView":26,
			"componentType":5126,
			"count":170,
			"type":"VEC3"
		},
		{
			"bufferView":27,
			"componentType":5123,
			"count":480,
			"type":"SCALAR"
		}
	],
	"bufferViews":[
		{
			"buffer":0,
			"byteLength":4032,
			"byteOffset":0,
			"target":34962
		},
		{
			"buffer":0,
			"byteLength":2688,
			"byteOffset":4032,
			"target":34962
		},
		{
			"buffer":0,
			"byteLength":4032,
			"byteOffset":6720,
			"target":34962
		},
		{
			"buffer":0,
			"byteLength":1896,
			"byteOffset":10752,
			"target":34963
		},
		{
			"buffer":0,
			"byteLength":2040,
			"byteOffset":12648,
			"target":34962
		},
		{
			"buffer":0,
			"byteLength":1360,
			"byteOffset":14688,
			"target":34962
		},
		{
			"buffer":0,
			"byteLength":2040,
			"byteOffset":16048,
			"target":34962
		},
		{
			"buffer":0,
			"byteLength":960,
			"byteOffset":18088,
			"target":34963
		},
		{
			"buffer":0,
			"byteLength":2040,
			"byteOffset":19048,
			"target":34962
		},
		{
			"buffer":0,
			"byteLength":1360,
			"byteOffset":21088,
			"target":34962
		},
		{
			"buffer":0,
			"byteLength":2040,
			"byteOffset":22448,
			"target":34962
		},
		{
			"buffer":0,
			"byteLength":2016,
			"byteOffset":24488,
			"target":34962
		},
		{
			"buffer":0,
			"byteLength":1344,
			"byteOffset":26504,
			"target":34962
		},
		{
			"buffer":0,
			"byteLength":2016,
			"byteOffset":27848,
			"target":34962
		},
		{
			"buffer":0,
			"byteLength":1272,
			"byteOffset":29864,
			"target":34963
		},
		{
			"buffer":0,
			"byteLength":2016,
			"byteOffset":31136,
			"target":34962
		},
		{
			"buffer":0,
			"byteLength":1344,
			"byteOffset":33152,
			"target":34962
		},
		{
			"buffer":0,
			"byteLength":2016,
			"byteOffset":34496,
			"target":34962
		},
		{
			"buffer":0,
			"byteLength":2016,
			"byteOffset":36512,
			"target":34962
		},
		{
			"buffer":0,
			"byteLength":1344,
			"byteOffset":38528,
			"target":34962
		},
		{
			"buffer":0,
			"byteLength":2016,
			"byteOffset":39872,
			"target":34962
		},
		{
			"buffer":0,
			"byteLength":2016,
			"byteOffset":41888,
			"target":34962
		},
		{
			"buffer":0,
			"byteLength":1344,
			"byteOffset":43904,
			"target":34962
		},
		{
			"buffer":0,
			"byteLength":2016,
			"byteOffset":45248,
			"target":34962
		},
		{
			"buffer":0,
			"byteLength":2040,
			"byteOffset":47264,
			"target":34962
		},
		{
			"buffer":0,
			"byteLength":1360,
			"byteOffset":49304,
			"target":34962
		},
		{
			"buffer":0,
			"byteLength":2040,
			"byteOffset":50664,
			"target":34962
		},
		{
			"buffer":0,
			"byteLength":960,
			"byteOffset":52704,
			"target":34963
		}
	],
	"buffers":[
		{
			"byteLength":53664,
			"uri":"data:application/octet-stream;base64,"
		}
	]
}
