# Blender v2.82 (sub 7) OBJ File: 'flour.blend'
# www.blender.org
mtllib stol.mtl
o Cube.011
v 2.170146 0.811058 -0.962014
v 2.148744 0.811058 -1.011149
v 2.148744 2.977248 -1.011149
v 2.148744 2.953429 -0.962014
v 2.148744 0.811058 -5.381435
v 2.170146 0.811058 -5.430571
v 2.148744 2.953429 -5.430571
v 2.148744 2.977248 -5.381435
v 4.095115 0.811058 -1.011149
v 4.073713 0.811058 -0.962014
v 4.095115 2.953429 -0.962014
v 4.095115 2.977248 -1.011149
v 4.073713 0.811058 -5.430571
v 4.095115 0.811058 -5.381435
v 4.095115 2.977248 -5.381435
v 4.095115 2.953429 -5.430571
v 2.170146 2.734120 -0.962014
v 2.148744 2.710301 -1.011149
v 2.148744 2.710301 -5.381435
v 2.170146 2.734120 -5.430571
v 4.073713 2.734120 -5.430571
v 4.095115 2.710301 -5.381435
v 4.095115 2.710301 -1.011149
v 4.073713 2.734120 -0.962014
v 1.559374 2.734120 -0.962014
v 1.537972 2.734120 -1.011149
v 1.559374 2.710301 -1.011149
v 1.559374 2.953429 -0.962014
v 1.559374 2.977248 -1.011149
v 1.537972 2.953429 -1.011149
v 1.559374 2.977248 -5.381435
v 1.559374 2.953429 -5.430571
v 1.537972 2.953429 -5.381435
v 4.684486 2.977248 -5.381435
v 4.705888 2.953429 -5.381435
v 4.684486 2.953429 -5.430571
v 4.684486 2.977248 -1.011149
v 4.684486 2.953429 -0.962014
v 4.705888 2.953429 -1.011149
v 1.559374 2.734120 -5.430571
v 1.559374 2.710301 -5.381435
v 1.537972 2.734120 -5.381435
v 4.684486 2.734120 -5.430571
v 4.705888 2.734120 -5.381435
v 4.684486 2.710301 -5.381435
v 4.684486 2.734120 -0.962014
v 4.684486 2.710301 -1.011149
v 4.705888 2.734120 -1.011149
v 1.559374 2.977248 -3.196292
v 1.537972 2.953429 -3.196292
v 4.684486 2.977248 -3.196292
v 4.705888 2.953429 -3.196292
v 4.705888 2.734120 -3.196292
v 4.684486 2.710301 -3.196292
v 1.537972 2.734120 -3.196292
v 1.559374 2.710301 -3.196292
v 2.148744 0.811058 -3.196292
v 2.148744 2.710301 -3.196292
v 4.095115 0.811058 -3.196292
v 2.148744 2.977248 -3.196292
v 4.095115 2.977248 -3.196292
v 4.095115 2.710301 -3.196292
v 1.537972 2.953429 -3.025615
v 1.537972 2.953429 -1.181826
v 4.684486 2.977248 -3.025615
v 4.684486 2.977248 -1.181826
v 4.705888 2.734120 -3.025615
v 4.705888 2.734120 -1.181826
v 1.559374 2.710301 -3.025615
v 1.559374 2.710301 -1.181826
v 2.148744 0.811058 -3.025615
v 2.148744 0.811058 -1.181826
v 4.095115 0.811058 -3.025615
v 4.095115 0.811058 -1.181826
v 4.095115 2.710301 -3.025615
v 4.095115 2.710301 -1.181826
v 1.559374 2.977248 -1.181826
v 1.559374 2.977248 -3.025616
v 4.705888 2.953429 -1.181826
v 4.705888 2.953429 -3.025616
v 4.684486 2.710301 -1.181826
v 4.684486 2.710301 -3.025616
v 1.537972 2.734120 -1.181826
v 1.537972 2.734120 -3.025616
v 2.148744 2.710301 -1.181826
v 2.148744 2.710301 -3.025616
v 2.148744 2.977248 -1.181826
v 2.148744 2.977248 -3.025616
v 4.095115 2.977248 -1.181826
v 4.095115 2.977248 -3.025616
v 2.170146 2.653129 -5.430571
v 2.170146 0.921008 -5.430571
v 2.148744 0.899555 -5.381435
v 2.148744 2.610221 -5.381435
v 4.095115 2.610221 -5.381435
v 4.095115 0.899554 -5.381435
v 4.073713 0.921009 -5.430571
v 4.073713 2.653129 -5.430571
v 4.073713 2.653129 -0.962014
v 4.073713 0.921008 -0.962014
v 4.095115 0.899555 -1.011149
v 4.095115 2.610221 -1.011149
v 2.170146 0.921009 -0.962014
v 2.170146 2.653129 -0.962014
v 2.148744 2.610221 -1.011149
v 2.148744 0.899554 -1.011149
v 2.148744 2.610221 -3.196292
v 2.148744 0.899554 -3.196292
v 4.095115 2.610221 -3.196292
v 4.095115 0.899554 -3.196292
v 2.148744 2.610221 -1.181826
v 2.148744 0.899554 -1.181826
v 2.148744 2.610221 -3.025616
v 2.148744 0.899554 -3.025615
v 4.095115 2.610221 -3.025615
v 4.095115 0.899554 -3.025615
v 4.095115 2.610221 -1.181826
v 4.095115 0.899554 -1.181826
v 1.559374 2.977248 -3.362206
v 1.559374 2.977248 -5.215523
v 4.705888 2.953429 -3.362206
v 4.705888 2.953429 -5.215523
v 4.684486 2.710301 -3.362206
v 4.684486 2.710301 -5.215523
v 1.537972 2.734120 -3.362206
v 1.537972 2.734120 -5.215523
v 2.148744 2.710301 -3.362206
v 2.148744 2.710301 -5.215523
v 2.148744 2.977248 -3.362206
v 2.148744 2.977248 -5.215523
v 4.095115 2.977248 -3.362206
v 4.095115 2.977248 -5.215523
v 1.537972 2.953429 -5.215522
v 1.537972 2.953429 -3.362206
v 4.684486 2.977248 -5.215522
v 4.684486 2.977248 -3.362206
v 4.705888 2.734120 -5.215522
v 4.705888 2.734120 -3.362206
v 1.559374 2.710301 -5.215522
v 1.559374 2.710301 -3.362206
v 2.148744 0.811058 -5.215522
v 2.148744 0.811058 -3.362206
v 4.095115 0.811058 -5.215522
v 4.095115 0.811058 -3.362206
v 4.095115 2.710301 -5.215522
v 4.095115 2.710301 -3.362206
v 4.095115 0.899554 -5.215523
v 4.095115 0.899554 -3.362206
v 4.095115 2.610221 -5.215523
v 4.095115 2.610221 -3.362206
v 2.148744 0.899554 -3.362206
v 2.148744 0.899554 -5.215523
v 2.148744 2.610221 -3.362206
v 2.148744 2.610221 -5.215523
v 2.095691 2.610221 -1.181826
v 2.085709 2.599112 -1.204742
v 2.085709 0.910663 -1.204742
v 2.095691 0.899554 -1.181826
v 2.085709 2.599112 -3.002699
v 2.095691 2.610221 -3.025616
v 2.095691 0.899554 -3.025615
v 2.085709 0.910663 -3.002699
v 2.095691 0.899554 -3.362206
v 2.085709 0.910664 -3.385123
v 2.085709 0.910664 -5.192606
v 2.095691 0.899554 -5.215523
v 2.085709 2.599112 -3.385123
v 2.095691 2.610221 -3.362206
v 2.095691 2.610221 -5.215523
v 2.085709 2.599112 -5.192606
v 1.936960 1.901178 -2.892302
v 1.936960 2.204741 -2.892302
v 2.002534 1.901178 -2.892302
v 2.002534 2.204741 -2.892302
v 1.936960 1.901178 -2.826728
v 1.936960 2.204741 -2.826728
v 2.002534 1.901178 -2.826728
v 2.002534 2.204741 -2.826728
v 2.002534 1.837067 -2.892302
v 2.002534 2.268852 -2.892302
v 2.002534 1.837067 -2.826728
v 2.002534 2.268852 -2.826728
v 2.166228 1.901178 -2.826728
v 2.166228 1.901178 -2.892302
v 2.166228 2.204741 -2.892302
v 2.166228 2.204741 -2.826728
v 2.166228 1.837067 -2.826728
v 2.166228 1.837067 -2.892302
v 2.166228 2.268852 -2.892302
v 2.166228 2.268852 -2.826728
v 2.002534 1.837067 -2.892302
v 1.936960 1.901178 -2.892302
v 1.956166 1.855845 -2.892302
v 1.936960 2.204741 -2.892302
v 2.002534 2.268852 -2.892302
v 1.956166 2.250074 -2.892302
v 1.936960 1.901178 -2.826728
v 2.002534 1.837067 -2.826728
v 1.956166 1.855845 -2.826728
v 2.002534 2.268852 -2.826728
v 1.936960 2.204741 -2.826728
v 1.956166 2.250074 -2.826728
v 1.936960 1.901178 -3.565857
v 1.936960 2.204741 -3.565857
v 2.002534 1.901178 -3.565857
v 2.002534 2.204741 -3.565857
v 1.936960 1.901178 -3.500283
v 1.936960 2.204741 -3.500283
v 2.002534 1.901178 -3.500283
v 2.002534 2.204741 -3.500283
v 2.002534 1.837067 -3.565857
v 2.002534 2.268852 -3.565857
v 2.002534 1.837067 -3.500283
v 2.002534 2.268852 -3.500283
v 2.166228 1.901178 -3.500283
v 2.166228 1.901178 -3.565857
v 2.166228 2.204741 -3.565857
v 2.166228 2.204741 -3.500283
v 2.166228 1.837067 -3.500283
v 2.166228 1.837067 -3.565857
v 2.166228 2.268852 -3.565857
v 2.166228 2.268852 -3.500283
v 2.002534 1.837067 -3.565857
v 1.936960 1.901178 -3.565857
v 1.956166 1.855845 -3.565857
v 1.936960 2.204741 -3.565857
v 2.002534 2.268852 -3.565857
v 1.956166 2.250074 -3.565857
v 1.936960 1.901178 -3.500283
v 2.002534 1.837067 -3.500283
v 1.956166 1.855845 -3.500283
v 2.002534 2.268852 -3.500283
v 1.936960 2.204741 -3.500283
v 1.956166 2.250074 -3.500283
vt 0.522960 0.252749
vt 0.596941 0.252749
vt 0.596941 0.497251
vt 0.522960 0.497251
vt 0.622251 0.250000
vt 0.596941 0.250000
vt 0.596941 0.250000
vt 0.622251 0.250000
vt 0.594192 0.043499
vt 0.594192 0.002749
vt 0.594192 0.002749
vt 0.594192 0.043499
vt 0.522960 0.752749
vt 0.596941 0.752749
vt 0.596941 0.997251
vt 0.522960 0.997251
vt 0.596941 1.000000
vt 0.622251 1.000000
vt 0.622251 1.000000
vt 0.596941 1.000000
vt 0.622251 0.750000
vt 0.622251 0.500000
vt 0.125000 0.706501
vt 0.375000 0.706501
vt 0.375000 0.747251
vt 0.372251 0.750000
vt 0.127749 0.750000
vt 0.125000 0.747251
vt 0.596941 0.706501
vt 0.622251 0.706501
vt 0.622251 0.747251
vt 0.596941 0.747251
vt 0.594192 0.543499
vt 0.594192 0.502749
vt 0.594192 0.502749
vt 0.594192 0.543499
vt 0.596941 0.750000
vt 0.596941 0.750000
vt 0.622251 0.750000
vt 0.596941 0.206501
vt 0.622251 0.206501
vt 0.622251 0.247251
vt 0.596941 0.247251
vt 0.596941 0.500000
vt 0.622251 0.500000
vt 0.596941 0.500000
vt 0.521128 0.706501
vt 0.594192 0.706501
vt 0.594192 0.747251
vt 0.521128 0.747251
vt 0.596941 1.000000
vt 0.594192 1.000000
vt 0.625000 1.000000
vt 0.622251 1.000000
vt 0.875000 0.502749
vt 0.875000 0.500000
vt 0.875000 0.502749
vt 0.625000 0.502749
vt 0.622251 0.502749
vt 0.625000 0.747251
vt 0.594192 0.247251
vt 0.596941 0.502749
vt 0.594192 0.747251
vt 0.448980 0.252749
vt 0.375000 0.252749
vt 0.375000 0.247251
vt 0.448064 0.247251
vt 0.875000 0.502749
vt 0.625000 0.502749
vt 0.625000 0.500000
vt 0.875000 0.500000
vt 0.448064 0.502749
vt 0.375000 0.502749
vt 0.375000 0.497251
vt 0.448980 0.497251
vt 0.448980 0.752749
vt 0.375000 0.752749
vt 0.448064 0.747251
vt 0.625000 0.747251
vt 0.875000 0.747251
vt 0.875000 0.750000
vt 0.625000 0.750000
vt 0.594192 1.000000
vt 0.521128 1.000000
vt 0.875000 0.543499
vt 0.875000 0.543499
vt 0.625000 0.706501
vt 0.594192 0.706501
vt 0.594192 0.206501
vt 0.875000 0.747251
vt 0.875000 0.750000
vt 0.594192 0.000000
vt 0.594192 0.000000
vt 0.594192 0.247251
vt 0.625000 0.250000
vt 0.625000 0.250000
vt 0.521128 0.206501
vt 0.594192 0.206501
vt 0.521128 0.247251
vt 0.521128 0.084250
vt 0.594192 0.084250
vt 0.594192 0.125000
vt 0.521128 0.125000
vt 0.596941 0.084250
vt 0.596941 0.125000
vt 0.594192 0.125000
vt 0.594192 0.084250
vt 0.596941 0.584250
vt 0.596941 0.625000
vt 0.594192 0.625000
vt 0.594192 0.584250
vt 0.625000 0.584250
vt 0.625000 0.625000
vt 0.622251 0.625000
vt 0.622251 0.584250
vt 0.875000 0.665750
vt 0.875000 0.625000
vt 0.875000 0.625000
vt 0.875000 0.665750
vt 0.521128 0.584250
vt 0.594192 0.584250
vt 0.594192 0.625000
vt 0.521128 0.625000
vt 0.622251 0.084250
vt 0.622251 0.125000
vt 0.594192 0.665750
vt 0.594192 0.665750
vt 0.125000 0.584250
vt 0.375000 0.584250
vt 0.375000 0.625000
vt 0.125000 0.625000
vt 0.594192 0.165750
vt 0.594192 0.165750
vt 0.596941 0.002749
vt 0.622251 0.002749
vt 0.622251 0.043499
vt 0.596941 0.043499
vt 0.875000 0.706501
vt 0.875000 0.706501
vt 0.875000 0.747251
vt 0.521128 0.002749
vt 0.521128 0.043499
vt 0.596941 0.665750
vt 0.625000 0.665750
vt 0.622251 0.665750
vt 0.521128 0.665750
vt 0.375000 0.665750
vt 0.125000 0.665750
vt 0.448064 0.665750
vt 0.448064 0.706501
vt 0.448064 0.625000
vt 0.375000 0.043499
vt 0.448064 0.043499
vt 0.448064 0.084250
vt 0.375000 0.084250
vt 0.521128 0.165750
vt 0.521128 0.206501
vt 0.521128 0.165750
vt 0.375000 0.002749
vt 0.448064 0.002749
vt 0.448064 0.584250
vt 0.448064 0.125000
vt 0.375000 0.125000
vt 0.375000 0.206501
vt 0.448064 0.206501
vt 0.375000 0.997251
vt 0.448980 0.997251
vt 0.448064 1.000000
vt 0.375000 1.000000
vt 0.521128 0.502749
vt 0.448064 0.165750
vt 0.448064 0.043499
vt 0.448064 0.084250
vt 0.375000 0.165750
vt 0.521128 0.543499
vt 0.448064 0.543499
vt 0.375000 0.543499
vt 0.125000 0.502749
vt 0.127749 0.500000
vt 0.372251 0.500000
vt 0.125000 0.543499
vt 0.622251 0.543499
vt 0.596941 0.543499
vt 0.625000 0.543499
vt 0.596941 0.165750
vt 0.875000 0.584250
vt 0.875000 0.584250
vt 0.622251 0.165750
vt 0.521128 0.084250
vt 0.521128 0.043499
vt 0.448064 0.165750
vt 0.448538 0.166254
vt 0.520653 0.166254
vt 0.520653 0.205997
vt 0.448538 0.205997
vt 0.448064 0.206501
vt 0.448538 0.044006
vt 0.520653 0.044006
vt 0.520653 0.083743
vt 0.448538 0.083743
vt 0.375000 0.000000
vt 0.625000 0.000000
vt 0.625000 0.250000
vt 0.375000 0.250000
vt 0.625000 0.500000
vt 0.375000 0.500000
vt 0.625000 0.750000
vt 0.375000 0.750000
vt 0.625000 1.000000
vt 0.375000 1.000000
vt 0.625000 0.000000
vt 0.625000 0.073223
vt 0.625000 0.250000
vt 0.625000 0.250000
vt 0.375000 1.000000
vt 0.375000 0.750000
vt 0.625000 0.750000
vt 0.625000 1.000000
vt 0.875000 0.500000
vt 0.625000 0.500000
vt 0.625000 0.500000
vt 0.875000 0.500000
vt 0.875000 0.500000
vt 0.625000 0.500000
vt 0.375000 0.676777
vt 0.375000 0.500000
vt 0.375000 0.500000
vt 0.125000 0.500000
vt 0.125000 0.500000
vt 0.625000 0.676777
vt 0.375000 0.500000
vt 0.375000 0.250000
vt 0.375000 0.500000
vt 0.375000 0.250000
vt 0.625000 0.500000
vt 0.625000 0.250000
vt 0.625000 0.250000
vt 0.375000 0.250000
vt 0.125000 0.500000
vt 0.375000 0.750000
vt 0.125000 0.750000
vt 0.375000 1.000000
vt 0.875000 0.750000
vt 0.625000 0.750000
vt 0.625000 1.000000
vt 0.375000 0.250000
vt 0.375000 0.073223
vt 0.375000 0.000000
vt 0.375000 0.000000
vt 0.625000 0.000000
vt 0.625000 0.250000
vt 0.375000 0.250000
vt 0.625000 0.500000
vt 0.375000 0.500000
vt 0.625000 0.750000
vt 0.375000 0.750000
vt 0.625000 1.000000
vt 0.375000 1.000000
vt 0.625000 0.000000
vt 0.625000 0.073223
vt 0.625000 0.250000
vt 0.625000 0.250000
vt 0.375000 1.000000
vt 0.375000 0.750000
vt 0.625000 0.750000
vt 0.625000 1.000000
vt 0.875000 0.500000
vt 0.625000 0.500000
vt 0.625000 0.500000
vt 0.875000 0.500000
vt 0.875000 0.500000
vt 0.625000 0.500000
vt 0.375000 0.676777
vt 0.375000 0.500000
vt 0.375000 0.500000
vt 0.125000 0.500000
vt 0.125000 0.500000
vt 0.625000 0.676777
vt 0.375000 0.500000
vt 0.375000 0.250000
vt 0.375000 0.500000
vt 0.375000 0.250000
vt 0.625000 0.500000
vt 0.625000 0.250000
vt 0.625000 0.250000
vt 0.375000 0.250000
vt 0.125000 0.500000
vt 0.375000 0.750000
vt 0.125000 0.750000
vt 0.375000 1.000000
vt 0.875000 0.750000
vt 0.625000 0.750000
vt 0.625000 1.000000
vt 0.375000 0.250000
vt 0.375000 0.073223
vt 0.375000 0.000000
vt 0.080112 1.332211
vt 0.080112 1.402839
vt -0.170780 1.402839
vt -0.170780 1.332211
vt 0.908671 -0.384911
vt 0.908671 -0.457567
vt 1.159563 -0.457567
vt 1.159563 -0.384911
vt 0.080112 -0.384911
vt 0.080112 -0.457567
vt 0.908671 0.543265
vt 0.080112 0.543265
vt 0.080112 0.472636
vt 0.908671 0.472636
vt 1.159563 0.472636
vt 1.159563 0.543264
vt 0.080112 0.399980
vt -0.170780 0.472636
vt -0.170780 0.399980
vt -0.170780 -0.384911
vt -0.170780 -0.457567
vt 0.908671 0.399980
vt 1.159563 0.399980
vt 0.908671 1.402839
vt 0.908671 1.332211
vt 1.159563 1.332211
vt 1.159563 1.402839
vt -0.170780 0.543265
vn 0.0000 0.0000 -1.0000
vn 0.0000 -1.0000 0.0000
vn 0.0000 0.0000 1.0000
vn 1.0000 0.0000 0.0000
vn -1.0000 0.0000 0.0000
vn -0.7076 -0.6358 0.3082
vn -0.7076 0.6358 0.3082
vn -0.7076 0.6358 -0.3082
vn 0.7076 0.6358 -0.3082
vn 0.7076 0.6358 0.3082
vn -0.7076 -0.6358 -0.3082
vn 0.7076 -0.6358 -0.3082
vn 0.7076 -0.6358 0.3082
vn -0.9168 0.0000 -0.3993
vn 0.0000 0.8998 -0.4362
vn 0.9168 0.0000 -0.3993
vn 0.9168 0.0000 0.3993
vn 0.0000 0.8998 0.4362
vn -0.9168 0.0000 0.3993
vn -0.7438 0.6684 0.0000
vn 0.7438 0.6684 0.0000
vn 0.7438 -0.6684 0.0000
vn -0.7438 -0.6684 0.0000
vn 0.0000 -0.8998 -0.4362
vn 0.0000 -0.8998 0.4362
vn 0.0000 1.0000 0.0000
vn -0.3754 -0.9269 0.0000
vn -0.9208 -0.3901 0.0000
vn -0.3754 0.9269 0.0000
vn -0.9208 0.3901 0.0000
usemtl Material.007
s off
f 91/1/1 20/2/1 21/3/1 98/4/1
f 7/5/1 20/6/1 40/7/1 32/8/1
f 85/9/2 18/10/2 27/11/2 70/12/2
f 99/13/3 24/14/3 17/15/3 104/16/3
f 17/17/3 4/18/3 28/19/3 25/20/3
f 24/14/3 11/21/3 4/18/3 17/15/3
f 20/2/1 7/5/1 16/22/1 21/3/1
f 72/23/2 74/24/2 9/25/2 10/26/2 1/27/2 2/28/2
f 68/29/4 79/30/4 39/31/4 48/32/4
f 145/33/2 22/34/2 45/35/2 124/36/2
f 11/21/3 24/37/3 46/38/3 38/39/3
f 126/40/5 133/41/5 33/42/5 42/43/5
f 21/44/1 16/22/1 36/45/1 43/46/1
f 117/47/4 76/48/4 23/49/4 102/50/4
f 25/20/6 26/51/6 27/52/6
f 28/19/7 29/53/7 30/54/7
f 31/55/8 32/56/8 33/57/8
f 34/58/9 35/59/9 36/45/9
f 37/60/10 38/39/10 39/31/10
f 40/7/11 41/61/11 42/43/11
f 43/46/12 44/62/12 45/35/12
f 46/38/13 47/63/13 48/32/13
f 92/64/14 6/65/14 5/66/14 93/67/14
f 8/68/15 15/69/15 16/70/15 7/71/15
f 96/72/16 14/73/16 13/74/16 97/75/16
f 100/76/17 10/77/17 9/25/17 101/78/17
f 12/79/18 3/80/18 4/81/18 11/82/18
f 104/16/19 17/15/19 18/83/19 105/84/19
f 25/20/19 28/19/19 30/54/19 26/51/19
f 120/85/20 31/55/20 33/57/20 133/86/20
f 66/87/21 37/60/21 39/31/21 79/30/21
f 32/8/14 40/7/14 42/43/14 33/42/14
f 35/59/16 44/62/16 43/46/16 36/45/16
f 38/39/17 46/38/17 48/32/17 39/31/17
f 68/29/22 48/32/22 47/63/22 81/88/22
f 126/40/23 42/43/23 41/61/23 139/89/23
f 15/69/15 34/58/15 36/45/15 16/22/15
f 45/35/24 22/34/24 21/44/24 43/46/24
f 3/80/18 29/90/18 28/91/18 4/81/18
f 27/11/25 18/10/25 17/92/25 25/93/25
f 40/7/24 20/6/24 19/94/24 41/61/24
f 11/21/18 38/39/18 37/60/18 12/79/18
f 46/38/25 24/37/25 23/49/25 47/63/25
f 7/5/15 32/8/15 31/95/15 8/96/15
f 154/97/5 128/98/5 19/94/5 94/99/5
f 113/100/5 86/101/5 58/102/5 107/103/5
f 84/104/23 55/105/23 56/106/23 69/107/23
f 138/108/22 53/109/22 54/110/22 123/111/22
f 136/112/21 51/113/21 52/114/21 121/115/21
f 78/116/20 49/117/20 50/118/20 63/119/20
f 150/120/4 146/121/4 62/122/4 109/123/4
f 84/104/5 63/124/5 50/125/5 55/105/5
f 75/126/2 62/122/2 54/110/2 82/127/2
f 138/108/4 121/115/4 52/114/4 53/109/4
f 142/128/2 144/129/2 59/130/2 57/131/2
f 127/132/2 58/102/2 56/106/2 140/133/2
f 23/49/2 76/48/2 81/88/2 47/63/2
f 76/48/2 75/126/2 82/127/2 81/88/2
f 26/134/5 30/135/5 64/136/5 83/137/5
f 83/137/5 64/136/5 63/124/5 84/104/5
f 29/90/20 77/138/20 64/139/20 30/140/20
f 77/138/20 78/116/20 63/119/20 64/139/20
f 26/134/23 83/137/23 70/12/23 27/11/23
f 83/137/23 84/104/23 69/107/23 70/12/23
f 105/141/5 18/10/5 85/9/5 111/142/5
f 111/142/5 85/9/5 86/101/5 113/100/5
f 53/109/22 67/143/22 82/127/22 54/110/22
f 67/143/22 68/29/22 81/88/22 82/127/22
f 51/113/21 65/144/21 80/145/21 52/114/21
f 65/144/21 66/87/21 79/30/21 80/145/21
f 109/123/4 62/122/4 75/126/4 115/146/4
f 115/146/4 75/126/4 76/48/4 117/47/4
f 53/109/4 52/114/4 80/145/4 67/143/4
f 67/143/4 80/145/4 79/30/4 68/29/4
f 57/131/2 59/130/2 73/147/2 71/148/2
f 71/148/2 73/147/2 74/24/2 72/23/2
f 58/102/2 86/101/2 69/107/2 56/106/2
f 86/101/2 85/9/2 70/12/2 69/107/2
f 73/147/4 116/149/4 118/150/4 74/24/4
f 116/149/4 115/146/4 117/47/4 118/150/4
f 59/130/4 110/151/4 116/149/4 73/147/4
f 110/151/4 109/123/4 115/146/4 116/149/4
f 72/152/5 112/153/5 114/154/5 71/155/5
f 153/156/26 154/97/26 169/157/26 168/158/26
f 2/159/5 106/160/5 112/153/5 72/152/5
f 106/160/5 105/141/5 111/142/5 112/153/5
f 144/129/4 148/161/4 110/151/4 59/130/4
f 148/161/4 150/120/4 109/123/4 110/151/4
f 71/155/5 114/154/5 108/162/5 57/163/5
f 114/154/5 113/100/5 107/103/5 108/162/5
f 141/164/5 152/165/5 93/67/5 5/66/5
f 152/165/5 154/97/5 94/99/5 93/67/5
f 1/166/19 103/167/19 106/168/19 2/169/19
f 103/167/19 104/16/19 105/84/19 106/168/19
f 24/14/17 99/13/17 102/50/17 23/49/17
f 99/13/17 100/76/17 101/78/17 102/50/17
f 22/34/16 95/170/16 98/4/16 21/3/16
f 95/170/16 96/72/16 97/75/16 98/4/16
f 20/2/14 91/1/14 94/99/14 19/94/14
f 91/1/14 92/64/14 93/67/14 94/99/14
f 74/24/4 118/150/4 101/78/4 9/25/4
f 118/150/4 117/47/4 102/50/4 101/78/4
f 10/77/3 100/76/3 103/167/3 1/166/3
f 100/76/3 99/13/3 104/16/3 103/167/3
f 6/65/1 92/64/1 97/75/1 13/74/1
f 92/64/1 91/1/1 98/4/1 97/75/1
f 108/162/5 107/103/5 153/156/5 151/171/5
f 114/154/2 112/153/2 158/172/2 161/173/2
f 57/163/5 108/162/5 151/171/5 142/174/5
f 142/174/5 151/171/5 152/165/5 141/164/5
f 96/72/4 95/170/4 149/175/4 147/176/4
f 147/176/4 149/175/4 150/120/4 148/161/4
f 14/73/4 96/72/4 147/176/4 143/177/4
f 143/177/4 147/176/4 148/161/4 144/129/4
f 19/94/2 128/98/2 139/89/2 41/61/2
f 128/98/2 127/132/2 140/133/2 139/89/2
f 5/178/2 6/179/2 13/180/2 14/73/2 143/177/2 141/181/2
f 141/181/2 143/177/2 144/129/2 142/128/2
f 44/62/4 35/59/4 122/182/4 137/183/4
f 137/183/4 122/182/4 121/115/4 138/108/4
f 95/170/4 22/34/4 145/33/4 149/175/4
f 149/175/4 145/33/4 146/121/4 150/120/4
f 34/58/21 135/184/21 122/182/21 35/59/21
f 135/184/21 136/112/21 121/115/21 122/182/21
f 44/62/22 137/183/22 124/36/22 45/35/22
f 137/183/22 138/108/22 123/111/22 124/36/22
f 107/103/5 58/102/5 127/132/5 153/156/5
f 153/156/5 127/132/5 128/98/5 154/97/5
f 55/105/23 125/185/23 140/133/23 56/106/23
f 125/185/23 126/40/23 139/89/23 140/133/23
f 49/117/20 119/186/20 134/187/20 50/118/20
f 119/186/20 120/85/20 133/86/20 134/187/20
f 55/105/5 50/125/5 134/188/5 125/185/5
f 125/185/5 134/188/5 133/41/5 126/40/5
f 62/122/2 146/121/2 123/111/2 54/110/2
f 146/121/2 145/33/2 124/36/2 123/111/2
f 111/142/26 113/100/26 160/189/26 155/190/26
f 151/171/3 153/156/3 168/158/3 163/191/3
f 164/192/5 167/193/5 170/194/5 165/195/5
f 152/165/2 151/171/2 163/191/2 166/196/2
f 157/197/5 156/198/5 159/199/5 162/200/5
f 113/100/1 114/154/1 161/173/1 160/189/1
f 154/97/1 152/165/1 166/196/1 169/157/1
f 156/198/19 157/197/19 158/172/19 155/190/19
f 160/189/14 161/173/14 162/200/14 159/199/14
f 157/197/23 162/200/23 161/173/23 158/172/23
f 155/190/20 160/189/20 159/199/20 156/198/20
f 164/192/23 165/195/23 166/196/23 163/191/23
f 168/158/20 169/157/20 170/194/20 167/193/20
f 167/193/19 164/192/19 163/191/19 168/158/19
f 169/157/14 166/196/14 165/195/14 170/194/14
f 112/153/3 111/142/3 155/190/3 158/172/3
usemtl Material.006
f 171/201/1 172/202/1 174/203/1 173/204/1
f 173/204/4 174/203/4 178/205/4 177/206/4
f 177/206/3 178/205/3 176/207/3 175/208/3
f 175/208/5 176/207/5 172/209/5 171/210/5
f 174/203/1 172/202/1 194/211/1 196/212/1 195/213/1 180/214/1
f 175/208/3 171/210/3 192/215/3 197/216/3
f 172/209/3 176/207/3 201/217/3 194/218/3
f 180/219/26 182/220/26 190/221/26 189/222/26
f 182/220/3 180/219/3 195/223/3 200/224/3
f 177/206/3 175/208/3 197/216/3 199/225/3 198/226/3 181/227/3
f 179/228/3 181/227/3 198/226/3 191/229/3
f 176/207/3 178/205/3 182/220/3 200/224/3 202/230/3 201/217/3
f 173/204/26 177/206/26 183/231/26 184/232/26
f 184/232/4 183/231/4 187/233/4 188/234/4
f 186/235/4 185/236/4 189/237/4 190/221/4
f 177/206/3 181/227/3 187/233/3 183/231/3
f 182/220/3 178/205/3 186/235/3 190/221/3
f 174/203/1 180/214/1 189/237/1 185/236/1
f 178/205/2 174/203/2 185/236/2 186/235/2
f 179/238/1 173/204/1 184/232/1 188/234/1
f 181/227/2 179/228/2 188/239/2 187/233/2
f 191/229/27 198/226/27 199/240/27 193/241/27
f 193/242/28 199/240/28 197/216/28 192/215/28
f 200/224/29 195/223/29 196/243/29 202/244/29
f 202/244/30 196/245/30 194/218/30 201/217/30
f 171/201/1 173/204/1 179/238/1 191/246/1 193/247/1 192/248/1
f 203/249/1 204/250/1 206/251/1 205/252/1
f 205/252/4 206/251/4 210/253/4 209/254/4
f 209/254/3 210/253/3 208/255/3 207/256/3
f 207/256/5 208/255/5 204/257/5 203/258/5
f 206/251/1 204/250/1 226/259/1 228/260/1 227/261/1 212/262/1
f 207/256/3 203/258/3 224/263/3 229/264/3
f 204/257/3 208/255/3 233/265/3 226/266/3
f 212/267/26 214/268/26 222/269/26 221/270/26
f 214/268/3 212/267/3 227/271/3 232/272/3
f 209/254/3 207/256/3 229/264/3 231/273/3 230/274/3 213/275/3
f 211/276/3 213/275/3 230/274/3 223/277/3
f 208/255/3 210/253/3 214/268/3 232/272/3 234/278/3 233/265/3
f 205/252/26 209/254/26 215/279/26 216/280/26
f 216/280/4 215/279/4 219/281/4 220/282/4
f 218/283/4 217/284/4 221/285/4 222/269/4
f 209/254/3 213/275/3 219/281/3 215/279/3
f 214/268/3 210/253/3 218/283/3 222/269/3
f 206/251/1 212/262/1 221/285/1 217/284/1
f 210/253/2 206/251/2 217/284/2 218/283/2
f 211/286/1 205/252/1 216/280/1 220/282/1
f 213/275/2 211/276/2 220/287/2 219/281/2
f 223/277/27 230/274/27 231/288/27 225/289/27
f 225/290/28 231/288/28 229/264/28 224/263/28
f 232/272/29 227/271/29 228/291/29 234/292/29
f 234/292/30 228/293/30 226/266/30 233/265/30
f 203/249/1 205/252/1 211/286/1 223/294/1 225/295/1 224/296/1
usemtl Material.008
f 130/297/26 8/298/26 31/299/26 120/300/26
f 89/301/26 12/302/26 37/303/26 66/304/26
f 89/301/26 87/305/26 3/306/26 12/302/26
f 131/307/26 129/308/26 60/309/26 61/310/26
f 131/307/26 61/310/26 51/311/26 136/312/26
f 88/313/26 60/309/26 49/314/26 78/315/26
f 3/306/26 87/305/26 77/316/26 29/317/26
f 87/305/26 88/313/26 78/315/26 77/316/26
f 61/310/26 60/309/26 88/313/26 90/318/26
f 90/318/26 88/313/26 87/305/26 89/301/26
f 61/310/26 90/318/26 65/319/26 51/311/26
f 90/318/26 89/301/26 66/304/26 65/319/26
f 15/320/26 132/321/26 135/322/26 34/323/26
f 132/321/26 131/307/26 136/312/26 135/322/26
f 15/320/26 8/298/26 130/297/26 132/321/26
f 132/321/26 130/297/26 129/308/26 131/307/26
f 60/309/26 129/308/26 119/324/26 49/314/26
f 129/308/26 130/297/26 120/300/26 119/324/26
